<svg width="267" height="231" viewBox="0 0 267 231" fill="none" xmlns="http://www.w3.org/2000/svg">
<path d="M86.1963 46.3088L86.0883 46.0754C81.4765 36.191 71.6357 29.8868 60.8079 29.8868H4.20061C1.11575 29.8868 -0.904838 33.1245 0.406229 35.9264L90.2529 228.57C91.7645 231.807 96.3455 231.807 97.8571 228.57L133.703 151.737C134.243 150.6 134.243 149.277 133.703 148.125L86.1963 46.3088Z" fill="#00C3FF"/>
<path d="M182.012 48.6745L181.889 48.4099L180.917 46.3085L180.809 46.075L173.267 29.8865L173.159 29.653C164.691 11.5499 146.644 0 126.809 0H84.3764C81.1373 0 78.9933 3.40893 80.3815 6.36645L91.2556 29.6686L91.3636 29.9021L98.9061 46.0906L99.014 46.3241L140.937 136.217L141.061 136.482L170.136 198.823C171.724 202.232 176.537 202.232 178.141 198.823L214.203 121.507C214.758 120.309 214.758 118.908 214.203 117.709L182.012 48.6901V48.6745Z" fill="#0062FF"/>
<path d="M263.53 46.3092H229.673C212.537 46.3092 201.231 64.3034 208.527 79.9471L221.051 106.814L221.175 107.078L227.807 121.306C228.964 123.765 232.434 123.765 233.591 121.306L266.414 50.9167C267.417 48.7842 265.859 46.3248 263.53 46.3248V46.3092ZM225.108 71.5104C221.329 71.5104 218.275 68.4283 218.275 64.6147C218.275 60.801 221.329 57.719 225.108 57.719C228.887 57.719 231.941 60.801 231.941 64.6147C231.941 68.4283 228.887 71.5104 225.108 71.5104Z" fill="#002342"/>
</svg>
