<svg width="796" height="154" viewBox="0 0 796 154" fill="none" xmlns="http://www.w3.org/2000/svg">
<path d="M154.783 23.7842L137.539 119.779H134.269L114.464 23.7842H75.5329L55.4813 119.779H52.4427L34.9669 23.7842H0L29.8306 147.299H75.3015L92.3146 54.3711H95.3377L113.523 147.299H158.516L189.056 23.7842H154.783Z" fill="#0062FF"/>
<path d="M273.088 112.245C272.07 114.596 270.558 116.791 268.537 118.83C266.517 120.869 264.064 122.519 261.195 123.764C258.327 125.025 254.702 125.648 250.352 125.648C240.558 125.648 232.984 122.472 227.617 116.121C222.989 110.642 220.367 102.579 219.735 91.9319L302.795 91.3092C303.736 80.3353 303.227 70.4821 301.283 61.7808C299.34 53.0794 295.993 45.6701 291.257 39.5527C286.522 33.4353 280.46 28.7655 273.072 25.5589C265.684 22.3524 257.339 20.7335 248.008 20.7335C238.059 20.7335 229.313 22.4146 221.786 25.7924C214.244 29.1702 207.951 33.8711 202.907 39.9107C197.848 45.9503 194.007 53.0483 191.37 61.2048C188.732 69.3613 187.406 78.2962 187.406 88.0248C187.406 97.7535 188.732 105.988 191.37 113.662C194.007 121.351 197.971 127.936 203.262 133.431C208.537 138.925 215.077 143.159 222.851 146.132C230.624 149.105 239.709 150.6 250.121 150.6C259.129 150.6 266.872 149.541 273.319 147.424C279.766 145.307 285.242 142.365 289.761 138.598C294.265 134.831 297.689 130.442 300.018 125.43C302.348 120.417 303.983 115.078 304.908 109.428L274.831 104.727C274.676 107.389 274.09 109.895 273.088 112.261V112.245ZM222.974 65.5477C225.226 59.6638 228.48 55.0874 232.768 51.7875C237.041 48.4875 242.208 46.8531 248.27 46.8531C253.391 46.8531 257.987 48.1917 262.028 50.8535C266.07 53.5153 268.985 57.5157 270.774 62.8548C271.746 65.75 272.27 69.0189 272.394 72.6146L220.799 73.2839C221.339 70.5288 222.064 67.9448 222.974 65.5633V65.5477Z" fill="#0062FF"/>
<path d="M398.148 112.245C397.13 114.596 395.618 116.791 393.598 118.83C391.577 120.869 389.125 122.519 386.256 123.764C383.371 125.025 379.762 125.648 375.412 125.648C365.618 125.648 358.045 122.472 352.692 116.121C348.065 110.642 345.443 102.579 344.81 91.9319L427.87 91.3092C428.796 80.3353 428.302 70.4821 426.359 61.7808C424.415 53.0794 421.068 45.6701 416.333 39.5527C411.598 33.4353 405.536 28.7655 398.148 25.5589C390.76 22.3524 382.415 20.7335 373.083 20.7335C363.135 20.7335 354.389 22.4146 346.862 25.7924C339.319 29.1702 333.026 33.8711 327.983 39.9107C322.923 45.9503 319.083 53.0483 316.445 61.2048C313.808 69.3613 312.481 78.2962 312.481 88.0248C312.481 97.7535 313.808 105.988 316.445 113.662C319.083 121.351 323.047 127.936 328.337 133.431C333.612 138.925 340.152 143.159 347.911 146.132C355.685 149.105 364.77 150.6 375.181 150.6C384.189 150.6 391.932 149.541 398.379 147.424C404.826 145.307 410.302 142.365 414.806 138.598C419.31 134.831 422.734 130.442 425.063 125.43C427.392 120.417 429.027 115.078 429.953 109.428L399.875 104.727C399.721 107.389 399.135 109.895 398.132 112.261L398.148 112.245ZM348.019 65.5477C350.271 59.6638 353.541 55.0874 357.813 51.7875C362.086 48.4875 367.253 46.8531 373.315 46.8531C378.451 46.8531 383.032 48.1917 387.073 50.8535C391.114 53.5153 394.029 57.5157 395.819 62.8548C396.79 65.75 397.315 69.0189 397.438 72.6146L345.844 73.2839C346.384 70.5288 347.109 67.9448 348.019 65.5633V65.5477Z" fill="#0062FF"/>
<path d="M528.252 44.1768C521.774 39.6782 514.154 37.4368 505.378 37.4368C498.56 37.4368 492.699 38.8377 487.825 41.6551C482.951 44.4725 478.94 48.5508 475.809 53.8899C472.678 59.229 470.195 65.7667 468.39 73.5029H464.843C465.814 68.8643 466.616 64.3969 467.249 60.1162C467.881 55.8356 468.39 51.6484 468.822 47.5701C469.239 43.4919 469.455 39.6938 469.455 36.1915V1.40173H439.377V100.712L439.593 150.679H464.873L464.658 117.368H467.789C469.316 125.104 471.614 131.673 474.683 137.09C477.737 142.506 481.856 146.616 487.007 149.418C492.159 152.22 498.082 153.636 504.761 153.636C513.676 153.636 521.434 151.317 528.052 146.678C534.669 142.039 539.759 135.393 543.306 126.754C546.854 118.115 548.628 107.608 548.628 95.2329C548.628 82.858 546.854 72.3977 543.306 63.8209C539.759 55.2441 534.746 48.7065 528.267 44.2079L528.252 44.1768ZM514.679 113.025C512.797 118.021 510.144 121.913 506.735 124.73C503.326 127.548 499.177 128.949 494.303 128.949C490.401 128.949 486.822 127.999 483.552 126.1C480.282 124.201 477.629 121.742 475.609 118.722C473.588 115.702 472.03 112.293 470.904 108.495C469.794 104.697 469.239 100.899 469.239 97.1163V93.9565C469.239 90.8744 469.624 87.7768 470.395 84.6792C471.151 81.5816 472.277 78.6708 473.742 75.9312C475.208 73.1916 476.982 70.7944 479.064 68.7553C481.146 66.7162 483.491 65.0662 486.066 63.8054C488.642 62.5445 491.527 61.9063 494.735 61.9063C499.609 61.9063 503.758 63.4162 507.167 66.436C510.576 69.4558 513.152 73.4251 514.895 78.3439C516.637 83.2627 517.501 89.0999 517.501 95.8399C517.501 102.58 516.56 108.028 514.679 113.025Z" fill="#0062FF"/>
<path d="M587.59 3.79808C584.598 1.26084 580.094 0 574.109 0C568.124 0 563.59 1.26084 560.52 3.79808C557.451 6.33532 555.924 10.0556 555.924 14.9744C555.924 19.613 557.497 23.1932 560.628 25.7304C563.759 28.2676 568.248 29.5285 574.109 29.5285C579.97 29.5285 584.582 28.2676 587.59 25.7304C590.582 23.1932 592.078 19.613 592.078 14.9744C592.078 10.0556 590.582 6.33532 587.59 3.79808Z" fill="#0062FF"/>
<path d="M589.379 39.9576H559.286V150.647H589.379V39.9576Z" fill="#0062FF"/>
<path d="M671.374 22.2747C663.955 22.2747 657.708 23.9869 652.664 27.4114C647.605 30.8359 643.579 36.066 640.587 43.0707C637.579 50.0909 635.45 59.4927 634.186 71.2761H630.391L630.623 25.1388H602.196L601.964 88.2584V150.662H636.083V96.3994C636.715 87.9471 638.289 80.8958 640.818 75.2453C643.348 69.5949 646.695 65.2832 650.89 62.3412C655.07 59.3993 660.16 57.9205 666.176 57.9205C668.381 57.9205 670.988 58.2007 673.996 58.7611C676.988 59.3215 679.842 60.162 682.525 61.2672L684.423 24.4539C681.585 23.66 679.132 23.0996 677.081 22.7728C675.029 22.4614 673.132 22.2902 671.389 22.2902L671.374 22.2747Z" fill="#0062FF"/>
<path d="M765.664 1.38513V36.1749C765.664 39.2725 765.834 42.8526 766.188 46.9309C766.528 51.0092 767.052 55.2898 767.762 59.7883C768.456 64.2869 769.289 68.9255 770.276 73.7042H766.512C764.985 65.6878 762.656 58.9789 759.51 53.562C756.378 48.145 752.337 44.1135 747.386 41.4361C742.435 38.7744 736.481 37.4357 729.525 37.4357C720.332 37.4357 712.527 39.755 706.126 44.3937C699.71 49.0323 694.851 55.6478 691.504 64.209C688.157 72.7858 686.491 83.0438 686.491 94.9984C686.491 106.953 688.342 117.942 692.028 126.737C695.715 135.516 700.913 142.194 707.591 146.77C714.27 151.331 722.075 153.619 730.99 153.619C737.391 153.619 743.036 152.281 747.91 149.619C752.785 146.957 756.826 142.972 760.034 137.711C763.242 132.434 765.602 125.663 767.145 117.367H770.692L770.276 150.678H795.757V1.38513H765.679H765.664ZM765.664 97.0997C765.664 100.898 765.109 104.649 763.998 108.385C762.888 112.105 761.391 115.514 759.51 118.612C757.628 121.709 755.083 124.2 751.89 126.099C748.682 127.998 744.995 128.948 740.815 128.948C736.08 128.948 731.931 127.547 728.383 124.729C724.836 121.912 722.152 117.989 720.347 112.915C718.527 107.856 717.633 102.096 717.633 95.621C717.633 89.1456 718.496 83.2461 720.239 78.3273C721.982 73.4085 724.558 69.4392 727.967 66.4194C731.376 63.3996 735.586 61.8897 740.599 61.8897C743.53 61.8897 746.306 62.5279 748.959 63.7888C751.597 65.0496 753.972 66.7463 756.07 68.8477C758.152 70.9491 759.941 73.3773 761.391 76.1169C762.857 78.8565 763.936 81.7829 764.631 84.865C765.325 87.9626 765.679 91.0446 765.679 94.1422V97.0997H765.664Z" fill="#0062FF"/>
</svg>
