<svg width="258" height="199" viewBox="0 0 258 199" fill="none" xmlns="http://www.w3.org/2000/svg">
<path d="M257.783 175.349H0V175.478H257.783V175.349Z" fill="#E0E0E0"/>
<path d="M229.726 178.664H212.841V178.794H229.726V178.664Z" fill="#E0E0E0"/>
<path d="M170.275 181.464H149.179V181.593H170.275V181.464Z" fill="#E0E0E0"/>
<path d="M178.324 181.464H173.436V181.593H178.324V181.464Z" fill="#E0E0E0"/>
<path d="M67.8847 179.984H48.0357V180.113H67.8847V179.984Z" fill="#E0E0E0"/>
<path d="M107.495 179.984H89.796V180.113H107.495V179.984Z" fill="#E0E0E0"/>
<path d="M207.851 178.664H189.847V178.794H207.851V178.664Z" fill="#E0E0E0"/>
<path d="M43.8236 179.984H26.6292V180.113H43.8236V179.984Z" fill="#E0E0E0"/>
<path d="M122.189 152.355H22.6391C21.8592 152.353 21.1117 152.043 20.5606 151.491C20.0096 150.939 19.7001 150.191 19.7001 149.411V9.47094C19.7068 8.69542 20.0192 7.95387 20.5695 7.4074C21.1198 6.86094 21.8636 6.55371 22.6391 6.55249H122.193C122.974 6.55249 123.723 6.86264 124.275 7.41472C124.827 7.96679 125.137 8.71556 125.137 9.49631V149.411C125.137 149.798 125.061 150.181 124.912 150.538C124.764 150.896 124.547 151.22 124.273 151.494C124 151.767 123.675 151.984 123.317 152.132C122.959 152.279 122.576 152.355 122.189 152.355ZM22.6391 6.65553C21.8935 6.65679 21.1788 6.95389 20.652 7.4816C20.1252 8.0093 19.8293 8.72449 19.8293 9.47015V149.411C19.8293 150.157 20.1252 150.872 20.652 151.399C21.1788 151.927 21.8935 152.224 22.6391 152.225H122.193C122.939 152.224 123.654 151.927 124.182 151.399C124.709 150.872 125.006 150.157 125.008 149.411V9.47094C125.006 8.72491 124.709 8.00985 124.182 7.48233C123.654 6.9548 122.939 6.65779 122.193 6.65632L22.6391 6.65553Z" fill="#E0E0E0"/>
<path d="M233.711 152.355H134.157C133.377 152.353 132.629 152.043 132.077 151.491C131.525 150.939 131.215 150.191 131.213 149.411V9.47094C131.221 8.69533 131.535 7.95413 132.085 7.40789C132.636 6.86164 133.38 6.55432 134.155 6.55249H233.709C234.484 6.55538 235.226 6.86334 235.775 7.40962C236.324 7.95591 236.635 8.69652 236.642 9.47094V149.411C236.642 150.189 236.334 150.936 235.784 151.488C235.235 152.04 234.49 152.351 233.711 152.355ZM134.155 6.65553C133.409 6.657 132.694 6.95401 132.167 7.48153C131.639 8.00906 131.342 8.72412 131.341 9.47015V149.411C131.342 150.157 131.639 150.872 132.167 151.399C132.694 151.927 133.409 152.224 134.155 152.225H233.709C234.455 152.224 235.171 151.927 235.698 151.399C236.226 150.872 236.523 150.157 236.524 149.411V9.47094C236.523 8.72491 236.226 8.00985 235.698 7.48233C235.171 6.9548 234.455 6.65779 233.709 6.65632L134.155 6.65553Z" fill="#E0E0E0"/>
<path d="M78.5725 52.0724L88.9765 41.8071L86.8063 37.5896C87.0005 37.1744 87.1725 36.7492 87.3215 36.3158L91.8585 34.9342L91.9615 20.3127L87.4435 18.8637C87.2787 18.4357 87.1083 18.0077 86.9283 17.5852L89.1968 13.3883L78.9331 2.98028L74.7108 5.15604C74.2946 4.96048 73.8678 4.78848 73.4323 4.64083L72.0507 0.103835L57.4371 0L55.9675 4.49023C55.5348 4.64876 55.1067 4.81996 54.6835 5.00544L50.4921 2.7734L40.0785 13.049L42.2749 17.2713C42.0815 17.6869 41.9096 18.112 41.7597 18.5451L37.1775 19.9576L37.0745 34.5736L41.5924 36.0225C41.751 36.4553 41.9222 36.8833 42.1076 37.3066L39.8756 41.4932L50.1449 51.902L54.3672 49.7318C54.7827 49.9252 55.2079 50.0971 55.641 50.247L57.0281 54.7888L71.6441 54.8871L73.093 50.3691C73.5258 50.2106 73.9538 50.0393 74.3771 49.8539L78.5725 52.0724ZM72.1799 35.172C70.3879 36.9372 68.0394 38.0265 65.5343 38.2543C63.0293 38.4821 60.5228 37.8344 58.4418 36.4214C56.3607 35.0085 54.834 32.9177 54.1215 30.5053C53.4091 28.093 53.5551 25.5082 54.5347 23.1914C55.5142 20.8746 57.2667 18.9691 59.4936 17.7995C61.7205 16.6298 64.284 16.2685 66.7474 16.7769C69.2109 17.2853 71.4218 18.6322 73.0037 20.5879C74.5855 22.5436 75.4403 24.9873 75.4226 27.5026C75.4122 28.9313 75.1204 30.3439 74.5641 31.6598C74.0077 32.9758 73.1976 34.1692 72.1799 35.172Z" fill="#F0F0F0"/>
<path d="M39.0433 79.2468L45.8845 72.5444L44.4578 69.7758C44.5814 69.4975 44.7003 69.2209 44.8081 68.9356L47.7931 68.028L47.8605 58.4285L44.8905 57.4773C44.7819 57.1936 44.6686 56.9098 44.5449 56.6316L46.0089 53.8836L39.2605 47.021L36.4918 48.4477C36.2136 48.3185 35.937 48.2052 35.6517 48.0918L34.7441 45.1116L25.1446 45.0442L24.1934 48.0142C23.9097 48.1172 23.6315 48.2306 23.3533 48.3542L20.6227 46.8966L13.7704 53.6339L15.1971 56.4081C15.0735 56.6815 14.9546 56.9629 14.8468 57.2435L11.8578 58.1519L11.796 67.7514L14.7604 68.7025C14.869 68.9863 14.9823 69.2701 15.106 69.5483L13.642 72.2963L20.3793 79.1327L23.148 77.6996C23.4262 77.8288 23.7028 77.9422 23.9882 78.0555L24.8957 81.0358L34.4952 81.1032L35.4464 78.1332C35.7301 78.0246 36.0083 77.9113 36.2866 77.7932L39.0433 79.2468ZM34.8424 68.162C33.8367 69.1554 32.559 69.8282 31.1709 70.0952C29.7828 70.3623 28.3466 70.2117 27.0441 69.6624C25.7416 69.1131 24.6313 68.1898 23.8537 67.0093C23.0761 65.8289 22.666 64.4443 22.6754 63.0307C22.6849 61.6172 23.1134 60.2382 23.9067 59.0682C24.7 57.8982 25.8225 56.9899 27.1322 56.458C28.4419 55.9261 29.88 55.7946 31.2644 56.0802C32.6488 56.3658 33.9174 57.0556 34.9098 58.0623C36.2393 59.4112 36.979 61.2327 36.9662 63.1266C36.9534 65.0206 36.1892 66.832 34.8416 68.1628L34.8424 68.162Z" fill="#E0E0E0"/>
<path d="M237.531 164.682L242.496 159.785L241.466 157.774C241.559 157.572 241.641 157.372 241.724 157.166L243.889 156.505L243.936 149.535L241.801 148.849C241.722 148.643 241.643 148.442 241.554 148.236L242.616 146.241L237.677 141.271L235.662 142.302C235.46 142.209 235.26 142.126 235.053 142.049L234.393 139.883L227.422 139.832L226.731 141.987C226.525 142.066 226.324 142.145 226.122 142.234L224.122 141.167L219.162 146.06L220.193 148.076C220.1 148.277 220.012 148.478 219.935 148.685L217.77 149.345L217.724 156.31L219.879 157.002C219.958 157.208 220.037 157.409 220.126 157.61L219.059 159.605L223.957 164.57L225.968 163.54C226.169 163.633 226.37 163.715 226.577 163.793L227.237 165.958L234.207 166.01L234.898 163.85C235.104 163.778 235.311 163.691 235.512 163.603L237.531 164.682ZM234.48 156.628C233.749 157.348 232.822 157.835 231.814 158.028C230.807 158.221 229.765 158.111 228.82 157.711C227.875 157.312 227.069 156.642 226.506 155.785C225.942 154.928 225.645 153.923 225.652 152.897C225.659 151.871 225.97 150.871 226.546 150.022C227.122 149.173 227.937 148.514 228.887 148.128C229.837 147.742 230.881 147.646 231.886 147.853C232.89 148.06 233.811 148.561 234.531 149.291C235.01 149.776 235.388 150.351 235.645 150.982C235.901 151.613 236.031 152.289 236.026 152.97C236.021 153.651 235.882 154.325 235.617 154.953C235.351 155.58 234.965 156.149 234.48 156.628Z" fill="#F0F0F0"/>
<path d="M176.628 157.036H25.0828C24.6536 157.036 24.2285 156.952 23.8319 156.787C23.4353 156.623 23.075 156.382 22.7714 156.079C22.4679 155.775 22.2271 155.415 22.0628 155.018C21.8986 154.622 21.814 154.197 21.814 153.767V39.9873C21.8153 39.1207 22.1601 38.29 22.7728 37.6773C23.3856 37.0646 24.2163 36.7198 25.0828 36.7185H176.628C177.495 36.7198 178.326 37.0646 178.938 37.6773C179.551 38.29 179.896 39.1207 179.897 39.9873V153.767C179.897 154.634 179.553 155.466 178.94 156.079C178.327 156.692 177.495 157.036 176.628 157.036ZM25.0828 36.9714C24.2843 36.9724 23.5188 37.2901 22.9542 37.8547C22.3896 38.4193 22.0719 39.1848 22.0708 39.9833V153.767C22.0719 154.566 22.3896 155.331 22.9542 155.896C23.5188 156.461 24.2843 156.778 25.0828 156.779H176.628C177.427 156.778 178.192 156.461 178.757 155.896C179.322 155.331 179.639 154.566 179.64 153.767V39.9873C179.639 39.1888 179.322 38.4233 178.757 37.8587C178.192 37.294 177.427 36.9764 176.628 36.9753L25.0828 36.9714Z" fill="#E0E0E0"/>
<path d="M28.8303 42.7294C28.4745 42.7294 28.1266 42.6239 27.8307 42.4262C27.5348 42.2284 27.3042 41.9474 27.168 41.6187C27.0318 41.2899 26.9962 40.9281 27.0656 40.5791C27.1351 40.2301 27.3064 39.9095 27.5581 39.6578C27.8097 39.4062 28.1303 39.2349 28.4793 39.1654C28.8283 39.096 29.1901 39.1316 29.5189 39.2678C29.8477 39.404 30.1287 39.6346 30.3264 39.9305C30.5241 40.2264 30.6296 40.5743 30.6296 40.9301C30.6296 41.4073 30.44 41.865 30.1026 42.2024C29.7652 42.5398 29.3075 42.7294 28.8303 42.7294ZM28.8303 39.3885C28.5245 39.3885 28.2255 39.4792 27.9712 39.6491C27.7169 39.819 27.5187 40.0605 27.4016 40.3431C27.2846 40.6257 27.254 40.9366 27.3136 41.2366C27.3733 41.5365 27.5206 41.8121 27.7369 42.0284C27.9531 42.2446 28.2287 42.3919 28.5286 42.4516C28.8286 42.5112 29.1395 42.4806 29.4221 42.3636C29.7047 42.2465 29.9462 42.0483 30.1161 41.794C30.2861 41.5397 30.3767 41.2407 30.3767 40.9349C30.3767 40.5247 30.2138 40.1314 29.9238 39.8414C29.6338 39.5514 29.2405 39.3885 28.8303 39.3885Z" fill="#E0E0E0"/>
<path d="M34.7489 42.7294C34.3931 42.7294 34.0452 42.6239 33.7493 42.4262C33.4534 42.2284 33.2228 41.9474 33.0866 41.6187C32.9504 41.2899 32.9148 40.9281 32.9842 40.5791C33.0536 40.2301 33.225 39.9095 33.4766 39.6578C33.7283 39.4062 34.0489 39.2349 34.3979 39.1654C34.7469 39.096 35.1087 39.1316 35.4375 39.2678C35.7662 39.404 36.0472 39.6346 36.2449 39.9305C36.4426 40.2264 36.5482 40.5743 36.5482 40.9301C36.5482 41.4073 36.3586 41.865 36.0212 42.2024C35.6838 42.5398 35.2261 42.7294 34.7489 42.7294ZM34.7489 39.3885C34.4431 39.3885 34.1441 39.4792 33.8898 39.6491C33.6355 39.819 33.4373 40.0605 33.3202 40.3431C33.2032 40.6257 33.1725 40.9366 33.2322 41.2366C33.2919 41.5365 33.4392 41.8121 33.6554 42.0284C33.8717 42.2446 34.1472 42.3919 34.4472 42.4516C34.7472 42.5112 35.0581 42.4806 35.3407 42.3636C35.6233 42.2465 35.8648 42.0483 36.0347 41.794C36.2046 41.5397 36.2953 41.2407 36.2953 40.9349C36.2953 40.5247 36.1324 40.1314 35.8424 39.8414C35.5524 39.5514 35.159 39.3885 34.7489 39.3885Z" fill="#E0E0E0"/>
<path d="M40.6682 42.7294C40.3124 42.7294 39.9645 42.6239 39.6686 42.4262C39.3727 42.2284 39.1421 41.9474 39.0059 41.6187C38.8697 41.2899 38.8341 40.9281 38.9035 40.5791C38.973 40.2301 39.1443 39.9095 39.396 39.6578C39.6476 39.4062 39.9682 39.2349 40.3172 39.1654C40.6662 39.096 41.028 39.1316 41.3568 39.2678C41.6855 39.404 41.9666 39.6346 42.1643 39.9305C42.362 40.2264 42.4675 40.5743 42.4675 40.9301C42.4675 41.4073 42.2779 41.865 41.9405 42.2024C41.6031 42.5398 41.1454 42.7294 40.6682 42.7294ZM40.6682 39.3885C40.3624 39.3885 40.0634 39.4792 39.8091 39.6491C39.5548 39.819 39.3566 40.0605 39.2395 40.3431C39.1225 40.6257 39.0919 40.9366 39.1515 41.2366C39.2112 41.5365 39.3585 41.8121 39.5747 42.0284C39.791 42.2446 40.0666 42.3919 40.3665 42.4516C40.6665 42.5112 40.9774 42.4806 41.26 42.3636C41.5426 42.2465 41.7841 42.0483 41.954 41.794C42.1239 41.5397 42.2146 41.2407 42.2146 40.9349C42.2146 40.5247 42.0517 40.1314 41.7617 39.8414C41.4717 39.5514 41.0784 39.3885 40.6682 39.3885Z" fill="#E0E0E0"/>
<path d="M235.127 15.075H86.9569C84.2909 15.075 82.1298 17.2361 82.1298 19.9021V130.308C82.1298 132.974 84.2909 135.135 86.9569 135.135H235.127C237.793 135.135 239.955 132.974 239.955 130.308V19.9021C239.955 17.2361 237.793 15.075 235.127 15.075Z" fill="#E0E0E0"/>
<path d="M236.815 135.649H85.2702C84.301 135.648 83.3719 135.262 82.6866 134.577C82.0014 133.892 81.6158 132.963 81.6146 131.993V18.2149C81.6158 17.2458 82.0014 16.3167 82.6866 15.6314C83.3719 14.9461 84.301 14.5606 85.2702 14.5593H236.815C237.784 14.5606 238.713 14.9461 239.398 15.6314C240.084 16.3167 240.469 17.2458 240.471 18.2149V131.995C240.469 132.964 240.084 133.893 239.398 134.578C238.713 135.264 237.784 135.649 236.815 135.651V135.649ZM85.2702 15.5905C84.5745 15.5918 83.9077 15.8687 83.4158 16.3606C82.9239 16.8525 82.647 17.5193 82.6458 18.2149V131.995C82.6472 132.691 82.9242 133.357 83.4161 133.849C83.908 134.341 84.5747 134.617 85.2702 134.619H236.815C237.511 134.617 238.177 134.34 238.669 133.849C239.161 133.357 239.438 132.69 239.439 131.994V18.2149C239.439 17.8703 239.371 17.529 239.24 17.2106C239.108 16.8922 238.914 16.6029 238.671 16.3592C238.427 16.1155 238.138 15.9222 237.819 15.7903C237.501 15.6584 237.16 15.5905 236.815 15.5905H85.2702Z" fill="#E0E0E0"/>
<path d="M82.1298 23.1953V131.979C82.1325 132.811 82.4641 133.608 83.0523 134.196C83.6405 134.785 84.4375 135.116 85.2694 135.119H236.815C237.647 135.116 238.444 134.785 239.032 134.196C239.62 133.608 239.952 132.811 239.955 131.979V23.1953H82.1298Z" fill="#F0F0F0"/>
<path d="M239.377 27.3708H82.7123V130.959H239.377V27.3708Z" fill="white"/>
<path d="M233.835 121.477H88.2552C88.2483 121.478 88.2412 121.477 88.2347 121.475C88.2281 121.473 88.2221 121.469 88.2171 121.464C88.2122 121.459 88.2084 121.453 88.2061 121.446C88.2038 121.44 88.203 121.433 88.2037 121.426V34.0837C88.2037 34.0701 88.2091 34.057 88.2188 34.0473C88.2285 34.0377 88.2416 34.0322 88.2552 34.0322H233.835C233.849 34.0335 233.861 34.0393 233.87 34.0487C233.88 34.0581 233.886 34.0705 233.887 34.0837V121.426C233.887 121.439 233.882 121.452 233.872 121.462C233.862 121.472 233.849 121.477 233.835 121.477ZM88.3091 121.374H233.784V34.1408H88.3067L88.3091 121.374Z" fill="#E6E6E6"/>
<path d="M89.0176 21.0346C88.5834 21.0335 88.1631 20.8819 87.8282 20.6057C87.4932 20.3294 87.2644 19.9456 87.1807 19.5196C87.097 19.0936 87.1636 18.6517 87.3691 18.2693C87.5746 17.8869 87.9063 17.5875 88.3078 17.4222C88.7092 17.2568 89.1555 17.2358 89.5708 17.3626C89.986 17.4895 90.3444 17.7563 90.585 18.1177C90.8255 18.4792 90.9333 18.9128 90.89 19.3448C90.8468 19.7768 90.6551 20.1804 90.3476 20.4869C90.1728 20.6612 89.9654 20.7993 89.7371 20.8932C89.5089 20.9872 89.2644 21.0353 89.0176 21.0346ZM89.0176 17.6993C88.6801 17.7004 88.3535 17.8186 88.0933 18.0335C87.8331 18.2485 87.6555 18.547 87.5906 18.8782C87.5258 19.2094 87.5778 19.5528 87.7377 19.85C87.8976 20.1472 88.1556 20.3797 88.4678 20.5081C88.7799 20.6364 89.1269 20.6526 89.4496 20.5539C89.7723 20.4551 90.0508 20.2476 90.2377 19.9666C90.4246 19.6856 90.5083 19.3485 90.4746 19.0127C90.4409 18.6769 90.2918 18.3631 90.0528 18.1249C89.9167 17.9893 89.7552 17.8819 89.5776 17.8089C89.4 17.7358 89.2097 17.6986 89.0176 17.6993Z" fill="white"/>
<path d="M94.9362 21.0346C94.5021 21.0335 94.0817 20.8819 93.7468 20.6057C93.4119 20.3294 93.1831 19.9456 93.0994 19.5196C93.0157 19.0936 93.0822 18.6517 93.2877 18.2693C93.4932 17.8869 93.825 17.5875 94.2264 17.4222C94.6278 17.2568 95.0742 17.2358 95.4894 17.3626C95.9046 17.4895 96.263 17.7563 96.5036 18.1177C96.7441 18.4792 96.852 18.9128 96.8087 19.3448C96.7654 19.7768 96.5737 20.1804 96.2663 20.4869C96.0915 20.6612 95.884 20.7993 95.6558 20.8932C95.4276 20.9872 95.183 21.0353 94.9362 21.0346ZM94.9362 17.6993C94.599 17.7028 94.2733 17.8231 94.0147 18.0396C93.7561 18.2562 93.5806 18.5556 93.5178 18.887C93.4551 19.2184 93.5091 19.5613 93.6706 19.8574C93.8322 20.1534 94.0913 20.3844 94.404 20.511C94.7166 20.6376 95.0634 20.6519 95.3855 20.5516C95.7075 20.4514 95.9848 20.2426 96.1703 19.9609C96.3558 19.6792 96.438 19.342 96.4029 19.0065C96.3678 18.6711 96.2175 18.3581 95.9777 18.1209C95.8406 17.9853 95.678 17.8782 95.4992 17.8058C95.3204 17.7335 95.1291 17.6972 94.9362 17.6993Z" fill="white"/>
<path d="M100.855 21.0346C100.421 21.0335 100 20.8819 99.6654 20.6057C99.3305 20.3294 99.1017 19.9456 99.0179 19.5196C98.9342 19.0936 99.0008 18.6517 99.2063 18.2693C99.4118 17.8869 99.7435 17.5875 100.145 17.4222C100.546 17.2568 100.993 17.2358 101.408 17.3626C101.823 17.4895 102.182 17.7563 102.422 18.1177C102.663 18.4792 102.771 18.9128 102.727 19.3448C102.684 19.7768 102.492 20.1804 102.185 20.4869C102.01 20.6612 101.803 20.7993 101.574 20.8932C101.346 20.9872 101.102 21.0353 100.855 21.0346ZM100.855 17.6993C100.517 17.7004 100.191 17.8186 99.9305 18.0335C99.6703 18.2485 99.4927 18.547 99.4279 18.8782C99.363 19.2094 99.415 19.5528 99.5749 19.85C99.7349 20.1472 99.9928 20.3797 100.305 20.5081C100.617 20.6364 100.964 20.6526 101.287 20.5539C101.61 20.4551 101.888 20.2476 102.075 19.9666C102.262 19.6856 102.346 19.3485 102.312 19.0127C102.278 18.6769 102.129 18.3631 101.89 18.1249C101.754 17.9893 101.592 17.8819 101.415 17.8089C101.237 17.7358 101.047 17.6986 100.855 17.6993Z" fill="white"/>
<path d="M239.955 22.9839H82.1298V23.4016H239.955V22.9839Z" fill="#E0E0E0"/>
<path d="M153.701 111.249L225.9 111.249V37.6623L153.701 37.6623V111.249Z" fill="#F0F0F0"/>
<path d="M91.822 61.5996L139.491 61.5996V37.6623L91.822 37.6623V61.5996Z" fill="#F0F0F0"/>
<path d="M91.822 130.958H139.491V70.55H91.822V130.958Z" fill="#F0F0F0"/>
<path d="M128.891 198.631C184.099 198.631 228.854 196.019 228.854 192.795C228.854 189.572 184.099 186.959 128.891 186.959C73.6834 186.959 28.9285 189.572 28.9285 192.795C28.9285 196.019 73.6834 198.631 128.891 198.631Z" fill="#F5F5F5"/>
<path d="M221.379 28.0986H36.4093C35.0961 28.1028 33.8378 28.626 32.9087 29.5542C31.9797 30.4823 31.4553 31.7401 31.4498 33.0533V156.512C31.4538 157.826 31.9777 159.085 32.9071 160.013C33.8365 160.941 35.0956 161.464 36.4093 161.467H221.379C222.692 161.463 223.95 160.94 224.878 160.011C225.807 159.083 226.33 157.825 226.334 156.512V33.0533C226.328 31.7409 225.805 30.4838 224.877 29.5558C223.949 28.6278 222.692 28.1041 221.379 28.0986Z" fill="#B0BEC5"/>
<path opacity="0.3" d="M221.379 28.0986H36.4093C35.0961 28.1028 33.8378 28.626 32.9087 29.5542C31.9797 30.4823 31.4553 31.7401 31.4498 33.0533V156.512C31.4538 157.826 31.9777 159.085 32.9071 160.013C33.8365 160.941 35.0956 161.464 36.4093 161.467H221.379C222.692 161.463 223.95 160.94 224.878 160.011C225.807 159.083 226.33 157.825 226.334 156.512V33.0533C226.328 31.7409 225.805 30.4838 224.877 29.5558C223.949 28.6278 222.692 28.1041 221.379 28.0986Z" fill="white"/>
<path d="M68.2823 36.368H42.1018C41.6298 36.3581 41.1805 36.1637 40.8502 35.8264C40.5198 35.489 40.3348 35.0357 40.3348 34.5636C40.3348 34.0915 40.5198 33.6382 40.8502 33.3008C41.1805 32.9635 41.6298 32.7691 42.1018 32.7592H68.2823C68.5224 32.7542 68.7612 32.7971 68.9845 32.8855C69.2078 32.9739 69.4113 33.1061 69.5829 33.2741C69.7545 33.4422 69.8908 33.6428 69.9839 33.8642C70.077 34.0856 70.1249 34.3234 70.1249 34.5636C70.1249 34.8038 70.077 35.0416 69.9839 35.263C69.8908 35.4844 69.7545 35.685 69.5829 35.8531C69.4113 36.0212 69.2078 36.1533 68.9845 36.2417C68.7612 36.3301 68.5224 36.3731 68.2823 36.368ZM42.1018 33.2768C41.76 33.2768 41.4322 33.4126 41.1905 33.6543C40.9488 33.896 40.813 34.2238 40.813 34.5656C40.813 34.9074 40.9488 35.2352 41.1905 35.4769C41.4322 35.7186 41.76 35.8544 42.1018 35.8544H68.2823C68.6241 35.8544 68.9519 35.7186 69.1936 35.4769C69.4353 35.2352 69.5711 34.9074 69.5711 34.5656C69.5711 34.2238 69.4353 33.896 69.1936 33.6543C68.9519 33.4126 68.6241 33.2768 68.2823 33.2768H42.1018Z" fill="#FAFAFA"/>
<path d="M76.7785 36.368H75.0308C74.7907 36.3731 74.5519 36.3301 74.3286 36.2417C74.1053 36.1533 73.9018 36.0212 73.7302 35.8531C73.5586 35.685 73.4223 35.4844 73.3292 35.263C73.2361 35.0416 73.1882 34.8038 73.1882 34.5636C73.1882 34.3234 73.2361 34.0856 73.3292 33.8642C73.4223 33.6428 73.5586 33.4422 73.7302 33.2741C73.9018 33.1061 74.1053 32.9739 74.3286 32.8855C74.5519 32.7971 74.7907 32.7542 75.0308 32.7592H76.7785C77.2506 32.7691 77.6999 32.9635 78.0302 33.3008C78.3605 33.6382 78.5455 34.0915 78.5455 34.5636C78.5455 35.0357 78.3605 35.489 78.0302 35.8264C77.6999 36.1637 77.2506 36.3581 76.7785 36.368ZM75.0308 33.2768C74.689 33.2768 74.3612 33.4126 74.1195 33.6543C73.8778 33.896 73.742 34.2238 73.742 34.5656C73.742 34.9074 73.8778 35.2352 74.1195 35.4769C74.3612 35.7186 74.689 35.8544 75.0308 35.8544H76.7785C77.1204 35.8544 77.4482 35.7186 77.6899 35.4769C77.9316 35.2352 78.0674 34.9074 78.0674 34.5656C78.0674 34.2238 77.9316 33.896 77.6899 33.6543C77.4482 33.4126 77.1204 33.2768 76.7785 33.2768H75.0308Z" fill="#FAFAFA"/>
<path d="M84.0842 36.368H82.3365C81.8644 36.3581 81.4151 36.1637 81.0848 35.8264C80.7545 35.489 80.5695 35.0357 80.5695 34.5636C80.5695 34.0915 80.7545 33.6382 81.0848 33.3008C81.4151 32.9635 81.8644 32.7691 82.3365 32.7592H84.0842C84.3243 32.7542 84.5631 32.7971 84.7864 32.8855C85.0097 32.9739 85.2132 33.1061 85.3848 33.2741C85.5564 33.4422 85.6927 33.6428 85.7858 33.8642C85.8789 34.0856 85.9268 34.3234 85.9268 34.5636C85.9268 34.8038 85.8789 35.0416 85.7858 35.263C85.6927 35.4844 85.5564 35.685 85.3848 35.8531C85.2132 36.0212 85.0097 36.1533 84.7864 36.2417C84.5631 36.3301 84.3243 36.3731 84.0842 36.368ZM82.3365 33.2768C81.9946 33.2768 81.6668 33.4126 81.4251 33.6543C81.1834 33.896 81.0476 34.2238 81.0476 34.5656C81.0476 34.9074 81.1834 35.2352 81.4251 35.4769C81.6668 35.7186 81.9946 35.8544 82.3365 35.8544H84.0842C84.426 35.8544 84.7538 35.7186 84.9955 35.4769C85.2372 35.2352 85.373 34.9074 85.373 34.5656C85.373 34.2238 85.2372 33.896 84.9955 33.6543C84.7538 33.4126 84.426 33.2768 84.0842 33.2768H82.3365Z" fill="#FAFAFA"/>
<path d="M31.4498 40.915V156.51C31.4537 157.824 31.9777 159.083 32.907 160.011C33.8364 160.939 35.0956 161.462 36.4092 161.465H221.379C222.692 161.461 223.95 160.938 224.878 160.009C225.807 159.081 226.33 157.823 226.334 156.51V40.915H31.4498Z" fill="#B0BEC5"/>
<path opacity="0.6" d="M31.4498 40.915V156.51C31.4537 157.824 31.9777 159.083 32.907 160.011C33.8364 160.939 35.0956 161.462 36.4092 161.465H221.379C222.692 161.461 223.95 160.938 224.878 160.009C225.807 159.081 226.33 157.823 226.334 156.51V40.915H31.4498Z" fill="white"/>
<path d="M32.3676 40.915V152.06C32.3669 152.43 32.4392 152.796 32.5801 153.137C32.721 153.479 32.9279 153.789 33.1889 154.05C33.4498 154.312 33.7598 154.519 34.101 154.661C34.4423 154.802 34.808 154.875 35.1774 154.875H222.606C222.975 154.875 223.341 154.802 223.682 154.661C224.024 154.519 224.334 154.312 224.595 154.05C224.856 153.789 225.062 153.479 225.203 153.137C225.344 152.796 225.417 152.43 225.416 152.06V40.915H32.3676Z" fill="#FAFAFA"/>
<path d="M41.2458 47.4575V68.0801H173.746V47.4575H41.2458Z" fill="#B0BEC5"/>
<path opacity="0.9" d="M41.2458 47.4575V68.0801H173.746V47.4575H41.2458Z" fill="white"/>
<path d="M173.231 74.0604V128.813H41.761V74.0604H173.231ZM173.746 73.5452H41.2458V129.329H173.746V73.5452Z" fill="#B0BEC5"/>
<path opacity="0.9" d="M173.231 74.0604V128.813H41.761V74.0604H173.231ZM173.746 73.5452H41.2458V129.329H173.746V73.5452Z" fill="white"/>
<path d="M188.604 188.001H184.72L183.68 178.994H187.573L188.604 188.001Z" fill="#FF8B7B"/>
<path d="M212.197 188.001H208.313L205.278 178.994H209.162L212.197 188.001Z" fill="#FF8B7B"/>
<path d="M207.773 187.547H212.516C212.593 187.548 212.668 187.575 212.728 187.624C212.788 187.672 212.83 187.74 212.846 187.815L213.614 191.27C213.633 191.354 213.632 191.441 213.612 191.526C213.592 191.61 213.553 191.688 213.499 191.755C213.444 191.822 213.375 191.876 213.297 191.912C213.218 191.949 213.133 191.967 213.046 191.966C211.5 191.939 210.407 191.847 208.484 191.847C207.303 191.847 204.875 191.97 203.235 191.97C201.595 191.97 201.389 190.356 202.054 190.212C205.055 189.552 206.176 188.666 207.143 187.789C207.315 187.633 207.54 187.547 207.772 187.547L207.773 187.547Z" fill="#263238"/>
<path d="M184.742 187.547H188.991C189.069 187.548 189.144 187.574 189.205 187.623C189.266 187.672 189.309 187.739 189.326 187.815L190.094 191.27C190.113 191.353 190.112 191.44 190.093 191.524C190.073 191.608 190.035 191.686 189.981 191.753C189.927 191.82 189.858 191.873 189.781 191.91C189.703 191.947 189.618 191.966 189.532 191.965C187.986 191.939 185.784 191.847 183.861 191.847C181.608 191.847 179.664 191.97 177.025 191.97C175.427 191.97 174.964 190.356 175.653 190.212C178.696 189.542 181.18 189.475 183.81 187.851C184.086 187.665 184.409 187.56 184.742 187.547Z" fill="#263238"/>
<path d="M190.837 91.4917C190.45 94.5037 190.028 97.5292 189.579 100.54L188.232 109.696C188.023 110.809 187.576 111.863 186.922 112.787C186.33 113.619 185.614 114.354 184.798 114.968C183.36 116.016 181.762 116.824 180.065 117.36C178.507 117.871 176.908 118.247 175.286 118.484C174.487 118.607 173.692 118.69 172.893 118.757C172.095 118.825 171.321 118.866 170.47 118.866L170.207 115.958C171.594 115.641 173.061 115.267 174.44 114.808C175.804 114.383 177.137 113.867 178.431 113.261C179.609 112.728 180.702 112.024 181.675 111.173C182.055 110.828 182.38 110.427 182.639 109.984C182.834 109.636 182.955 109.252 182.995 108.855L183.145 106.685C183.196 105.911 183.268 105.138 183.336 104.375C183.47 102.838 183.623 101.306 183.794 99.7778C184.13 96.7207 184.527 93.6841 185.001 90.6365L190.837 91.4917Z" fill="#FF8B7B"/>
<path d="M192.121 89.5581C193.43 93.0385 190.291 104.705 190.291 104.705L181.651 100.385C181.938 96.8497 182.741 93.3758 184.033 90.0733C186.006 85.5783 190.682 85.7225 192.121 89.5581Z" fill="#B0BEC5"/>
<path opacity="0.3" d="M192.121 89.5581C193.43 93.0385 190.291 104.705 190.291 104.705L181.651 100.385C181.938 96.8497 182.741 93.3758 184.033 90.0733C186.006 85.5783 190.682 85.7225 192.121 89.5581Z" fill="black"/>
<path d="M172.276 115.605L168.033 115.889L170.015 120.441C170.811 120.418 171.579 120.141 172.207 119.65C172.834 119.159 173.288 118.481 173.502 117.713L172.276 115.605Z" fill="#FF8B7B"/>
<path d="M164.202 117.677L166.559 120.864L170.013 120.441L168.032 115.889L164.202 117.677Z" fill="#FF8B7B"/>
<path d="M183.686 178.994L184.283 184.225L188.15 183.993L187.573 179L183.686 178.994Z" fill="#EA7063"/>
<path d="M209.17 178.994H205.278L207.309 185.026L210.928 184.217L209.17 178.994Z" fill="#EA7063"/>
<path d="M187.502 86.8783C187.502 86.8783 182.913 98.6226 187.269 120.498H208.07C208.215 117.302 206.209 101.727 209.287 86.6769C206.989 86.2332 204.664 85.9403 202.327 85.8003C199.38 85.6274 196.426 85.6274 193.48 85.8003C191.461 86.0025 189.461 86.3627 187.499 86.8775L187.502 86.8783Z" fill="#B0BEC5"/>
<path opacity="0.3" d="M187.502 86.8783C187.502 86.8783 182.913 98.6226 187.269 120.498H208.07C208.215 117.302 206.209 101.727 209.287 86.6769C206.989 86.2332 204.664 85.9403 202.327 85.8003C199.38 85.6274 196.426 85.6274 193.48 85.8003C191.461 86.0025 189.461 86.3627 187.499 86.8775L187.502 86.8783Z" fill="black"/>
<path d="M195.1 97.8693C194.822 100.478 193.388 102.466 191.894 102.308C190.399 102.149 189.413 99.9055 189.687 97.2914C189.96 94.6773 191.404 92.6942 192.894 92.8472C194.384 93.0001 195.402 95.2552 195.1 97.8693Z" fill="#B0BEC5"/>
<path opacity="0.1" d="M195.1 97.8693C194.822 100.478 193.388 102.466 191.894 102.308C190.399 102.149 189.413 99.9055 189.687 97.2914C189.96 94.6773 191.404 92.6942 192.894 92.8472C194.384 93.0001 195.402 95.2552 195.1 97.8693Z" fill="white"/>
<path d="M205.051 93.8684C205.732 90.4347 207.052 91.0276 208.31 92.7183C207.772 97.2709 207.524 101.853 207.567 106.437C206.711 104.984 203.917 99.6221 205.051 93.8684Z" fill="#B0BEC5"/>
<path opacity="0.4" d="M205.051 93.8684C205.732 90.4347 207.052 91.0276 208.31 92.7183C207.772 97.2709 207.524 101.853 207.567 106.437C206.711 104.984 203.917 99.6221 205.051 93.8684Z" fill="black"/>
<path d="M201.452 75.8391C200.897 78.6846 200.342 83.8978 202.329 85.8001C202.329 85.8001 201.55 88.6821 196.26 88.6821C190.449 88.6821 193.481 85.8001 193.481 85.8001C196.657 85.0423 196.572 82.7088 196.023 80.4744L201.452 75.8391Z" fill="#FF8B7B"/>
<path d="M199.235 77.7312L196.023 80.4737C196.16 80.98 196.251 81.4975 196.297 82.0201C197.509 81.8449 199.173 80.5141 199.302 79.2459C199.375 78.7412 199.352 78.2275 199.235 77.7312Z" fill="#EA7063"/>
<path d="M193.341 65.1879C191.201 66.8524 191.217 73.4986 194.459 73.6381C197.702 73.7776 197.405 62.0435 193.341 65.1879Z" fill="#263238"/>
<path d="M202.277 72.4778C201.148 76.169 200.674 78.386 198.314 79.8555C194.777 82.067 190.58 79.242 190.58 75.2876C190.58 71.7248 192.431 66.2913 196.458 65.6778C197.343 65.5417 198.249 65.6338 199.089 65.9456C199.929 66.2573 200.675 66.7783 201.258 67.4593C201.84 68.1402 202.239 68.9586 202.417 69.8368C202.594 70.715 202.545 71.624 202.273 72.4778H202.277Z" fill="#FF8B7B"/>
<path d="M201.133 76.0873C198.963 76.4273 197.777 65.2608 202.956 67.7298C210.31 71.2515 204.648 75.5404 201.133 76.0873Z" fill="#263238"/>
<path d="M201.338 68.7553C198.662 68.523 194.79 68.6364 193.95 65.3319C192.779 60.7228 198.291 60.0419 199.652 63.5683C202.931 62.4912 211.964 68.1204 205.947 70.977L201.338 68.7553Z" fill="#263238"/>
<path d="M202.978 77.0154C202.28 77.6885 201.344 78.0588 200.375 78.0458C199.091 78.0197 198.828 76.7824 199.477 75.7615C200.081 74.8389 201.472 73.7458 202.612 74.2666C202.861 74.3847 203.077 74.5632 203.239 74.7859C203.402 75.0086 203.506 75.2683 203.542 75.5415C203.579 75.8147 203.546 76.0927 203.448 76.3501C203.349 76.6075 203.188 76.8362 202.978 77.0154Z" fill="#FF8B7B"/>
<path d="M187.268 120.492C187.268 120.492 172.101 141.512 172.526 153.37C172.964 165.707 182.75 182.757 182.75 182.757L189.076 181.308C189.076 181.308 182.781 166.455 183.075 154.339C183.393 141.13 200.94 130.705 200.94 120.518L187.268 120.492Z" fill="#263238"/>
<path d="M194.652 120.493C194.652 120.493 186.918 142.147 189.347 153.288C191.997 165.481 205.329 183.5 205.329 183.5L211.697 181.746C211.697 181.746 203.076 166.243 201.566 154.168C199.921 141.068 208.093 130.236 208.093 120.491L194.652 120.493Z" fill="#263238"/>
<path d="M204.36 184.386L213.516 182.685L213.058 180.228L202.793 181.966L204.36 184.386Z" fill="#B0BEC5"/>
<path opacity="0.4" d="M204.36 184.386L213.516 182.685L213.058 180.228L202.793 181.966L204.36 184.386Z" fill="white"/>
<path d="M181.437 183.289L190.702 182.376L190.455 179.85L180.082 180.742L181.437 183.289Z" fill="#B0BEC5"/>
<path opacity="0.4" d="M181.437 183.289L190.702 182.376L190.455 179.85L180.082 180.742L181.437 183.289Z" fill="white"/>
<path d="M196.343 72.163C196.27 72.4674 196.049 72.6782 195.827 72.6267C195.606 72.5752 195.523 72.2914 195.601 71.9871C195.678 71.6827 195.895 71.4719 196.091 71.5234C196.206 71.5779 196.296 71.6744 196.343 71.7932C196.39 71.9121 196.39 72.0444 196.343 72.163Z" fill="#263238"/>
<path d="M192.894 71.3332C192.822 71.6376 192.6 71.8484 192.379 71.8024C192.157 71.7565 192.08 71.4672 192.152 71.1628C192.224 70.8584 192.446 70.6476 192.667 70.6936C192.888 70.7395 192.966 71.0288 192.894 71.3332Z" fill="#263238"/>
<path d="M193.951 71.7507C193.371 72.5946 192.678 73.3544 191.89 74.0089C192.063 74.208 192.277 74.3669 192.517 74.4746C192.758 74.5824 193.019 74.6363 193.282 74.6327L193.951 71.7507Z" fill="#FF5652"/>
<path d="M194.633 75.772C194.4 75.7717 194.168 75.7451 193.942 75.6927C193.918 75.6856 193.899 75.67 193.886 75.6491C193.874 75.6281 193.87 75.6033 193.874 75.5794C193.877 75.5675 193.883 75.5563 193.89 75.5465C193.897 75.5366 193.906 75.5283 193.917 75.5221C193.927 75.5158 193.939 75.5117 193.951 75.51C193.963 75.5082 193.976 75.5089 193.988 75.512C194.365 75.6117 194.761 75.6206 195.143 75.538C195.525 75.4553 195.881 75.2834 196.184 75.0365C196.201 75.0196 196.225 75.0103 196.249 75.0103C196.273 75.0103 196.296 75.0196 196.313 75.0365C196.322 75.0447 196.329 75.0547 196.334 75.0658C196.339 75.0769 196.341 75.0889 196.341 75.101C196.341 75.1132 196.339 75.1252 196.334 75.1363C196.329 75.1474 196.322 75.1574 196.313 75.1657C195.843 75.5616 195.247 75.7767 194.633 75.772Z" fill="#263238"/>
<path d="M197.689 71.3024C197.654 71.3022 197.62 71.2919 197.591 71.2726C197.561 71.2533 197.538 71.2259 197.524 71.1938C197.438 70.9794 197.301 70.7886 197.127 70.6371C196.952 70.4855 196.744 70.3775 196.519 70.3219C196.471 70.3137 196.428 70.2866 196.399 70.2464C196.37 70.2063 196.359 70.1565 196.367 70.1079C196.375 70.0593 196.403 70.016 196.443 69.9875C196.483 69.9589 196.533 69.9475 196.581 69.9557C196.866 70.0213 197.131 70.1543 197.353 70.3436C197.576 70.5328 197.749 70.7728 197.86 71.0432C197.87 71.0652 197.876 71.0889 197.877 71.1132C197.877 71.1374 197.873 71.1615 197.865 71.1841C197.856 71.2067 197.843 71.2274 197.826 71.2449C197.809 71.2623 197.789 71.2762 197.767 71.2857C197.743 71.2987 197.716 71.3045 197.689 71.3024Z" fill="#263238"/>
<path d="M191.713 69.7925C191.67 69.794 191.627 69.7793 191.594 69.7513C191.575 69.7363 191.559 69.7177 191.548 69.6965C191.536 69.6753 191.529 69.652 191.527 69.628C191.524 69.604 191.527 69.5798 191.534 69.5567C191.541 69.5336 191.552 69.5122 191.568 69.4937C191.75 69.2605 191.985 69.0749 192.255 68.9528C192.524 68.8306 192.819 68.7755 193.114 68.7922C193.163 68.7977 193.207 68.8222 193.238 68.8604C193.268 68.8986 193.282 68.9474 193.277 68.9959C193.271 69.0445 193.247 69.0889 193.209 69.1194C193.17 69.1498 193.122 69.1639 193.073 69.1584C192.842 69.1523 192.612 69.2004 192.403 69.2988C192.193 69.3972 192.01 69.5432 191.867 69.7252C191.848 69.7491 191.824 69.7679 191.796 69.7797C191.768 69.7915 191.738 69.7959 191.708 69.7925H191.713Z" fill="#263238"/>
<path d="M140.999 144.364L127.043 146.022L127.104 146.534L141.06 144.876L140.999 144.364Z" fill="#B0BEC5"/>
<path d="M151.725 143.069L145.977 143.759L146.038 144.271L151.787 143.58L151.725 143.069Z" fill="#B0BEC5"/>
<path d="M231.358 110.144L107.577 124.853L110.177 146.729L233.957 132.02L231.358 110.144Z" fill="#B0BEC5"/>
<path d="M213.081 118.292L156.217 125.049L157.412 135.099L214.275 128.342L213.081 118.292Z" fill="#B0BEC5"/>
<path opacity="0.2" d="M213.081 118.292L156.217 125.049L157.412 135.099L214.275 128.342L213.081 118.292Z" fill="white"/>
<path d="M126.266 139.192C129.032 136.978 129.48 132.94 127.266 130.174C125.052 127.407 121.015 126.959 118.248 129.173C115.482 131.387 115.034 135.424 117.248 138.191C119.461 140.957 123.499 141.405 126.266 139.192Z" fill="#B0BEC5"/>
<path opacity="0.2" d="M126.266 139.192C129.032 136.978 129.48 132.94 127.266 130.174C125.052 127.407 121.015 126.959 118.248 129.173C115.482 131.387 115.034 135.424 117.248 138.191C119.461 140.957 123.499 141.405 126.266 139.192Z" fill="white"/>
<path d="M145.476 135.95C147.633 133.14 147.105 129.114 144.296 126.957C141.487 124.8 137.461 125.328 135.303 128.137C133.146 130.946 133.674 134.972 136.483 137.13C139.292 139.287 143.318 138.759 145.476 135.95Z" fill="#B0BEC5"/>
<path opacity="0.2" d="M145.476 135.95C147.633 133.14 147.105 129.114 144.296 126.957C141.487 124.8 137.461 125.328 135.303 128.137C133.146 130.946 133.674 134.972 136.483 137.13C139.292 139.287 143.318 138.759 145.476 135.95Z" fill="white"/>
<path d="M210.773 89.7031C211.113 90.4252 211.392 91.0641 211.66 91.764C211.928 92.4639 212.175 93.1201 212.444 93.8248C212.959 95.1913 213.387 96.5776 213.774 97.9956C214.175 99.4199 214.503 100.864 214.759 102.321L214.944 103.431L215.078 104.559C215.129 104.936 215.15 105.323 215.176 105.704L215.217 106.282V107.179C215.116 108.193 214.822 109.178 214.351 110.082C213.988 110.809 213.574 111.51 213.114 112.18C212.262 113.405 211.33 114.572 210.325 115.675C208.384 117.807 206.281 119.786 204.035 121.594L201.974 119.533C203.655 117.383 205.336 115.161 206.857 112.954C207.603 111.882 208.291 110.771 208.918 109.625C209.205 109.111 209.455 108.577 209.665 108.027C209.813 107.674 209.9 107.299 209.923 106.917V106.799L209.851 106.335C209.804 106.018 209.763 105.716 209.692 105.396L209.507 104.458L209.285 103.507C208.968 102.243 208.614 100.975 208.207 99.7124C207.801 98.4498 207.357 97.1863 206.888 95.9284C206.655 95.2991 206.418 94.6753 206.174 94.0515L205.417 92.1333L210.773 89.7031Z" fill="#FF8B7B"/>
<path d="M210.103 86.9345C213.573 88.2701 216.063 100.964 216.063 100.964L207.814 104.214C206.265 100.628 205.026 96.9152 204.113 93.117C203.133 88.1559 206.165 85.434 210.103 86.9345Z" fill="#B0BEC5"/>
<path opacity="0.3" d="M210.103 86.9345C213.573 88.2701 216.063 100.964 216.063 100.964L207.814 104.214C206.265 100.628 205.026 96.9152 204.113 93.117C203.133 88.1559 206.165 85.434 210.103 86.9345Z" fill="black"/>
<path d="M206.506 188.227C206.241 188.247 205.976 188.178 205.753 188.032C205.684 187.971 205.631 187.895 205.598 187.81C205.565 187.725 205.552 187.633 205.562 187.542C205.562 187.488 205.576 187.436 205.605 187.39C205.633 187.344 205.673 187.308 205.721 187.284C206.154 187.062 207.407 187.831 207.544 187.924C207.561 187.932 207.574 187.946 207.581 187.963C207.589 187.98 207.59 187.999 207.585 188.017C207.582 188.034 207.575 188.05 207.563 188.063C207.551 188.076 207.535 188.085 207.518 188.089C207.186 188.174 206.845 188.221 206.502 188.228L206.506 188.227ZM205.929 187.423C205.886 187.419 205.843 187.429 205.805 187.449C205.779 187.449 205.753 187.486 205.748 187.558C205.739 187.619 205.746 187.681 205.767 187.738C205.789 187.796 205.825 187.847 205.872 187.887C206.306 188.088 206.8 188.114 207.253 187.959C206.85 187.698 206.4 187.516 205.928 187.424L205.929 187.423Z" fill="#B0BEC5"/>
<path d="M207.5 188.093C207.484 188.098 207.468 188.098 207.453 188.093C207.051 187.877 206.272 187.027 206.355 186.593C206.368 186.525 206.405 186.463 206.458 186.419C206.512 186.374 206.58 186.35 206.649 186.35C206.719 186.343 206.79 186.349 206.857 186.369C206.925 186.39 206.987 186.424 207.041 186.469C207.494 186.836 207.588 187.96 207.596 188.016C207.596 188.033 207.593 188.049 207.585 188.065C207.578 188.08 207.568 188.093 207.554 188.104C207.537 188.105 207.519 188.102 207.503 188.093H207.5ZM206.742 186.516H206.695C206.576 186.516 206.566 186.588 206.561 186.609C206.514 186.866 207.01 187.511 207.412 187.815C207.384 187.371 207.224 186.946 206.953 186.593C206.893 186.544 206.818 186.516 206.741 186.514L206.742 186.516Z" fill="#B0BEC5"/>
<path d="M183.129 188.227C182.795 188.258 182.459 188.174 182.178 187.99C182.116 187.934 182.067 187.865 182.038 187.786C182.008 187.708 181.998 187.624 182.008 187.541C182.01 187.491 182.025 187.441 182.051 187.398C182.077 187.355 182.114 187.319 182.158 187.294C182.633 187.031 184.194 187.809 184.377 187.918C184.393 187.927 184.406 187.94 184.415 187.957C184.423 187.973 184.426 187.992 184.424 188.01C184.422 188.03 184.414 188.048 184.401 188.062C184.388 188.076 184.371 188.086 184.352 188.09C183.95 188.175 183.54 188.221 183.129 188.229V188.227ZM182.423 187.423C182.364 187.419 182.305 187.432 182.253 187.459C182.235 187.469 182.219 187.483 182.208 187.5C182.197 187.517 182.191 187.537 182.191 187.558C182.186 187.612 182.193 187.667 182.213 187.718C182.232 187.769 182.264 187.815 182.304 187.852C182.851 188.097 183.468 188.135 184.042 187.96C183.537 187.691 182.989 187.509 182.423 187.425V187.423Z" fill="#B0BEC5"/>
<path d="M184.33 188.093H184.293C183.824 187.882 182.896 187.063 182.963 186.603C182.963 186.5 183.056 186.371 183.309 186.346C183.401 186.334 183.494 186.343 183.583 186.37C183.672 186.397 183.754 186.443 183.824 186.504C184.186 186.923 184.398 187.451 184.427 188.005C184.429 188.02 184.427 188.036 184.421 188.05C184.414 188.064 184.404 188.076 184.391 188.084C184.371 188.093 184.35 188.097 184.329 188.094L184.33 188.093ZM183.378 186.516H183.327C183.156 186.516 183.146 186.595 183.146 186.619C183.099 186.887 183.734 187.547 184.213 187.836C184.169 187.392 183.989 186.972 183.698 186.634C183.61 186.557 183.496 186.515 183.378 186.516Z" fill="#B0BEC5"/>
<path d="M202.875 118.946L199.06 119.976L202.22 123.807C202.22 123.807 205.277 122.222 204.618 120.508L202.875 118.946Z" fill="#FF8B7B"/>
<path d="M196.297 123.158L199.06 126.159L202.22 123.803L199.06 119.972L196.297 123.158Z" fill="#FF8B7B"/>
<path d="M73.0199 77.7002C72.1592 78.5768 71.2357 79.5509 70.3853 80.5203C69.5348 81.4897 68.6843 82.4845 67.8845 83.5054C67.0848 84.5263 66.3381 85.5662 65.6002 86.5966L65.085 87.3956L64.5697 88.2049C64.3993 88.4783 64.2527 88.751 64.1005 89.03L63.6931 89.7774C63.5255 90.2053 63.4314 90.6585 63.4149 91.1178C63.3736 91.7083 63.3736 92.3011 63.4149 92.8917C63.5049 94.1667 63.6684 95.4354 63.9047 96.6915C64.1267 97.9756 64.4199 99.2691 64.714 100.548C65.0081 101.826 65.3481 103.125 65.6834 104.399L63.7961 105.105C62.6471 102.603 61.6887 100.018 60.9292 97.3716C60.5369 96.0197 60.2371 94.6426 60.032 93.2499C59.9255 92.5038 59.8725 91.751 59.8734 90.9973C59.8591 90.1079 60.0094 89.2235 60.3165 88.3887C60.4299 88.105 60.4972 87.9924 60.5741 87.822L60.8064 87.3377C60.9649 87.0127 61.1234 86.6933 61.2906 86.3866L61.8059 85.4481L62.3211 84.5358C63.0419 83.3344 63.8267 82.1726 64.672 81.0554C65.5074 79.9457 66.373 78.8487 67.2877 77.8056C68.2003 76.7405 69.1656 75.7218 70.18 74.7532L73.0199 77.7002Z" fill="#B55B52"/>
<path d="M73.2355 71.5606C70.4772 71.6843 67.8528 76.268 67.8528 76.268L71.116 82.9261C71.116 82.9261 76.4417 79.5971 76.5059 75.5483C76.5511 72.92 75.9534 71.437 73.2355 71.5606Z" fill="#B0BEC5"/>
<path opacity="0.5" d="M73.2355 71.5606C70.4772 71.6843 67.8528 76.268 67.8528 76.268L71.116 82.9261C71.116 82.9261 76.4417 79.5971 76.5059 75.5483C76.5511 72.92 75.9534 71.437 73.2355 71.5606Z" fill="black"/>
<path d="M65.1625 103.629L68.5241 104.629L66.2865 106.892C66.2865 106.892 63.8682 106.144 63.5281 104.5L65.1625 103.629Z" fill="#B55B52"/>
<path d="M70.5556 107.212L69.9937 109.378L66.2866 106.893L68.5241 104.629L70.5556 107.212Z" fill="#B55B52"/>
<path d="M147.609 84.7985L66.0804 86.7483L66.8155 117.488L148.344 115.538L147.609 84.7985Z" fill="#B0BEC5"/>
<path opacity="0.6" d="M147.609 84.7985L66.0804 86.7483L66.8155 117.488L148.344 115.538L147.609 84.7985Z" fill="white"/>
<path d="M143.511 87.3449L113.117 88.0718L113.391 99.5299L143.786 98.803L143.511 87.3449Z" fill="#B0BEC5"/>
<path opacity="0.7" d="M143.511 87.3449L113.117 88.0718L113.391 99.5299L143.786 98.803L143.511 87.3449Z" fill="white"/>
<path d="M127.215 101.61L96.8209 102.337L97.095 113.795L127.489 113.068L127.215 101.61Z" fill="#B0BEC5"/>
<path opacity="0.7" d="M127.215 101.61L96.8209 102.337L97.095 113.795L127.489 113.068L127.215 101.61Z" fill="white"/>
<path d="M92.2863 61.4039C92.2348 61.721 92.3584 62.0071 92.5645 62.0436C92.7706 62.0801 92.9822 61.8629 93.0401 61.5284C93.0979 61.1939 92.9608 60.9252 92.7563 60.884C92.5518 60.8428 92.3124 61.0845 92.2863 61.4039Z" fill="#263238"/>
<path d="M92.6366 60.9037L93.4292 60.8315C93.4292 60.8315 92.9457 61.3468 92.6366 60.9037Z" fill="#263238"/>
<path d="M92.4773 61.7598C92.6425 62.5362 92.9112 63.2869 93.2763 63.9918C93.0935 64.0756 92.8948 64.119 92.6937 64.119C92.4926 64.119 92.2939 64.0756 92.1111 63.9918L92.4773 61.7598Z" fill="#A02724"/>
<path d="M93.0345 59.3828C93.0034 59.382 92.973 59.373 92.9465 59.3566C92.7375 59.2361 92.5032 59.1662 92.2624 59.1525C92.0215 59.1387 91.7808 59.1815 91.5594 59.2774C91.5377 59.289 91.5138 59.2962 91.4893 59.2985C91.4647 59.3009 91.4399 59.2983 91.4164 59.2909C91.3928 59.2835 91.371 59.2715 91.3521 59.2556C91.3333 59.2396 91.3178 59.2201 91.3066 59.1981C91.2942 59.1765 91.2865 59.1526 91.2838 59.1279C91.2811 59.1031 91.2836 59.0781 91.2911 59.0544C91.2985 59.0307 91.3108 59.0087 91.3271 58.9899C91.3434 58.9712 91.3634 58.9559 91.3859 58.9453C91.6618 58.8215 91.9631 58.765 92.2651 58.7803C92.5672 58.7956 92.8613 58.8823 93.1233 59.0332C93.1453 59.0445 93.1648 59.0599 93.1807 59.0788C93.1967 59.0976 93.2087 59.1195 93.2161 59.143C93.2234 59.1666 93.226 59.1913 93.2237 59.2159C93.2214 59.2405 93.2142 59.2643 93.2026 59.2861C93.1878 59.3172 93.1644 59.3434 93.1352 59.3617C93.1059 59.3799 93.0721 59.3895 93.0377 59.3891L93.0345 59.3828Z" fill="#263238"/>
<path d="M82.1866 64.002C82.2659 66.41 82.0162 70.7504 80.1258 71.9782C80.1258 71.9782 80.3731 74.4583 84.7096 75.2929C89.4733 76.2156 87.3752 73.3851 87.3752 73.3851C84.8744 72.2611 85.2612 70.3588 86.0142 68.642L82.1866 64.002Z" fill="#B55B52"/>
<path d="M95.1683 78.0515C95.4671 79.2531 95.8436 80.5673 96.2558 81.8046C96.6679 83.0419 97.1324 84.2792 97.6532 85.4705C98.1616 86.6428 98.7545 87.7766 99.4271 88.863C100.041 89.8941 100.787 90.8404 101.646 91.6776C102.045 92.0507 102.484 92.3776 102.956 92.6517C103.175 92.7825 103.405 92.8961 103.641 92.9918L103.858 93.071C103.915 93.0876 103.974 93.098 104.033 93.1019C104.446 93.1111 104.856 93.0229 105.229 92.8443C105.752 92.6096 106.251 92.3248 106.719 91.9938C108.817 90.4193 110.72 88.6021 112.39 86.5802L114.071 87.6986C113.715 88.3485 113.349 88.9414 112.961 89.5446C112.574 90.1478 112.162 90.7256 111.724 91.2979C110.846 92.4823 109.849 93.5742 108.749 94.5564C108.145 95.0885 107.484 95.5536 106.779 95.9435C105.935 96.4227 104.987 96.6916 104.016 96.7274C103.731 96.7286 103.447 96.7044 103.166 96.6553C102.903 96.6053 102.644 96.5346 102.392 96.4436C101.983 96.3027 101.586 96.1304 101.203 95.9284C100.464 95.5425 99.7728 95.072 99.1425 94.5263C96.9117 92.4646 95.154 89.9441 93.9904 87.1382C93.3814 85.8263 92.8495 84.48 92.3973 83.1061C91.9272 81.7321 91.5347 80.3328 91.2218 78.9147L95.1683 78.0515Z" fill="#B55B52"/>
<path d="M112.166 86.7852L113.337 84.6404L116.587 85.5012C116.587 85.5012 114.638 88.4656 112.978 88.4711L112.166 86.7852Z" fill="#B55B52"/>
<path d="M115.982 83.8669L118.452 85.5013H116.585L113.335 84.6405L115.982 83.8669Z" fill="#B55B52"/>
<path d="M71.8183 187.721L75.7981 188.009L76.9791 178.874L72.9993 178.58L71.8183 187.721Z" fill="#B55B52"/>
<path d="M40.5032 168.07L43.2512 171.024L50.7114 165.682L47.9586 162.728L40.5032 168.07Z" fill="#B55B52"/>
<path d="M44.4575 170.564L42.1589 166.646C42.1221 166.579 42.0622 166.527 41.9902 166.501C41.9182 166.474 41.839 166.475 41.7673 166.502L38.4985 167.822C38.4166 167.859 38.3437 167.914 38.2845 167.982C38.2253 168.05 38.1814 168.13 38.1555 168.216C38.1296 168.302 38.1224 168.393 38.1344 168.483C38.1464 168.572 38.1773 168.658 38.2251 168.734C39.0447 170.082 39.5091 170.698 40.5197 172.421C41.1388 173.451 41.9465 175.091 42.7985 176.542C43.6506 177.994 45.1083 177.256 44.8594 176.573C44.1477 174.887 44.0456 173.006 44.5709 171.252C44.6112 171.017 44.5713 170.775 44.4575 170.564Z" fill="#263238"/>
<path d="M76.0461 187.449H71.5765C71.4989 187.446 71.423 187.472 71.3631 187.521C71.3032 187.571 71.2635 187.64 71.2515 187.717L70.6357 191.259C70.6239 191.347 70.6311 191.437 70.6569 191.522C70.6826 191.607 70.7263 191.686 70.7849 191.753C70.8435 191.82 70.9158 191.873 70.9968 191.91C71.0778 191.947 71.1658 191.966 71.2547 191.965C72.8011 191.939 73.57 191.847 75.5389 191.847C76.7508 191.847 79.2507 191.976 80.9216 191.976C82.5924 191.976 82.7208 190.321 82.0313 190.171C78.94 189.5 77.7265 188.573 76.6953 187.691C76.5147 187.538 76.2871 187.453 76.0509 187.448L76.0461 187.449Z" fill="#263238"/>
<path d="M76.9799 178.875L76.3252 183.958L72.3914 183.298L73.0001 178.586L76.9799 178.875Z" fill="#9E4541"/>
<path d="M47.9578 162.728L50.7106 165.682L47.6193 167.894L44.7659 165.006L47.9578 162.728Z" fill="#9E4541"/>
<path d="M72.1171 95.8021L88.0997 98.8934C95.6217 76.6673 93.8327 75.9714 93.8327 75.9714C92.6646 75.3377 91.4595 74.7747 90.2239 74.2855L90.0075 74.2062C88.9771 73.8297 88.7702 73.7782 87.4037 73.3763C85.0127 72.7882 82.5934 72.3218 80.1552 71.9789L79.6399 71.9068C79.1501 71.845 78.6658 71.7934 78.1966 71.7483C77.8795 71.7118 77.5625 71.6912 77.2581 71.669L76.2277 71.6119C74.4839 71.5327 73.2371 71.5549 73.2371 71.5549C74.1145 85.4338 73.4527 89.3985 72.1171 95.8021Z" fill="#B0BEC5"/>
<path opacity="0.5" d="M72.1171 95.8021L88.0997 98.8934C95.6217 76.6673 93.8327 75.9714 93.8327 75.9714C92.6646 75.3377 91.4595 74.7747 90.2239 74.2855L90.0075 74.2062C88.9771 73.8297 88.7702 73.7782 87.4037 73.3763C85.0127 72.7882 82.5934 72.3218 80.1552 71.9789L79.6399 71.9068C79.1501 71.845 78.6658 71.7934 78.1966 71.7483C77.8795 71.7118 77.5625 71.6912 77.2581 71.669L76.2277 71.6119C74.4839 71.5327 73.2371 71.5549 73.2371 71.5549C74.1145 85.4338 73.4527 89.3985 72.1171 95.8021Z" fill="black"/>
<path d="M90.59 82.727C90.1318 85.0498 90.2936 87.4523 91.0592 89.6926C92.3845 85.3514 93.1201 82.3822 93.5441 80.3507C92.3227 80.1906 91.018 80.5877 90.59 82.727Z" fill="#B0BEC5"/>
<path opacity="0.6" d="M90.59 82.727C90.1318 85.0498 90.2936 87.4523 91.0592 89.6926C92.3845 85.3514 93.1201 82.3822 93.5441 80.3507C92.3227 80.1906 91.018 80.5877 90.59 82.727Z" fill="black"/>
<path d="M93.6837 75.8962C96.3493 77.6336 98.0432 81.5056 98.4942 83.717L92.3077 88.7542C92.3077 88.7542 88.9415 81.2369 90.0448 79.3219C91.2036 77.319 92.6779 75.2415 93.6837 75.8962Z" fill="#B0BEC5"/>
<path opacity="0.5" d="M93.6837 75.8962C96.3493 77.6336 98.0432 81.5056 98.4942 83.717L92.3077 88.7542C92.3077 88.7542 88.9415 81.2369 90.0448 79.3219C91.2036 77.319 92.6779 75.2415 93.6837 75.8962Z" fill="black"/>
<path d="M81.7951 58.4803C81.3988 62.3982 81.1404 64.0485 82.7795 66.4145C85.2438 69.9773 90.162 69.7554 91.7299 66.0689C93.1423 62.7541 93.56 56.9022 90.0027 54.6234C89.2459 54.1089 88.3681 53.8004 87.4558 53.7283C86.5435 53.6562 85.6281 53.8229 84.7998 54.2121C83.9715 54.6012 83.2589 55.1994 82.732 55.9476C82.2051 56.6959 81.8822 57.5685 81.7951 58.4795V58.4803Z" fill="#B55B52"/>
<path d="M81.8514 50.4837C79.4434 52.2679 80.9851 52.6951 79.9594 54.4952C78.8616 56.4236 77.7068 54.2273 75.5207 56.3459C74.1027 57.7227 76.5511 59.1812 74.7629 61.605C73.3917 63.4867 71.9095 61.8579 72.4841 65.7267C72.8805 68.3614 71.2675 68.0317 70.1792 69.521C68.6328 71.6555 70.0207 73.1869 73.9996 73.9906C77.9786 74.7943 75.1442 78.7955 78.887 78.9144C82.9706 79.0484 82.0218 73.7275 84.0113 75.0218C86.0008 76.3162 89.6255 75.1352 89.4012 71.9544C89.2054 69.0359 85.962 69.1397 88.5864 67.1439C90.6472 65.5975 91.2726 65.5975 89.8189 62.2772C88.5864 59.4523 93.1131 59.885 93.0306 57.4358C92.8721 53.0177 89.8189 54.3446 88.8543 52.0792C88.2344 50.597 84.9347 48.1946 81.8514 50.4837Z" fill="#263238"/>
<path d="M89.4099 60.5224C89.4302 61.2545 89.6769 61.9623 90.1161 62.5484C90.7248 63.3782 91.4414 63.1618 91.6165 62.3985C91.7234 61.95 91.7111 61.4813 91.5808 61.039C91.4505 60.5967 91.2068 60.1962 90.8738 59.8772C90.0955 59.3002 89.4146 59.7028 89.4099 60.5224Z" fill="#B55B52"/>
<path d="M83.8669 98.085C83.8669 98.085 76.092 124.126 72.2946 139.124C68.2831 154.952 49.1562 167.846 49.1562 167.846L45.0781 163.804C45.0781 163.804 57.864 153.013 61.7463 138.243C69.629 108.268 65.8347 101.916 72.1194 95.822L83.8669 98.085Z" fill="#B0BEC5"/>
<path opacity="0.8" d="M83.8669 98.085C83.8669 98.085 76.092 124.126 72.2946 139.124C68.2831 154.952 49.1562 167.846 49.1562 167.846L45.0781 163.804C45.0781 163.804 57.864 153.013 61.7463 138.243C69.629 108.268 65.8347 101.916 72.1194 95.822L83.8669 98.085Z" fill="white"/>
<path d="M49.5099 168.435L44.4109 163.367L45.798 161.831L52.0003 167.11L49.5099 168.435Z" fill="#B0BEC5"/>
<path d="M80.217 103.629C75.1133 107.563 74.7724 122.555 74.8913 129.33C77.469 119.859 80.5626 109.326 82.3468 103.232C81.8569 102.82 81.1555 102.902 80.217 103.629Z" fill="#B0BEC5"/>
<path opacity="0.6" d="M80.217 103.629C75.1133 107.563 74.7724 122.555 74.8913 129.33C77.469 119.859 80.5626 109.326 82.3468 103.232C81.8569 102.82 81.1555 102.902 80.217 103.629Z" fill="white"/>
<path d="M45.2819 172.688C45.2341 172.696 45.1854 172.696 45.1376 172.688C44.6533 172.538 44.3077 171.658 44.1429 171.142C44.1377 171.124 44.1379 171.105 44.1434 171.088C44.1489 171.07 44.1595 171.055 44.1738 171.043C44.1888 171.032 44.2068 171.027 44.2253 171.027C44.2438 171.027 44.2618 171.032 44.2768 171.043C44.4266 171.115 45.7155 171.791 45.767 172.296C45.7718 172.353 45.762 172.409 45.7385 172.461C45.715 172.513 45.6787 172.557 45.633 172.59C45.5303 172.662 45.4066 172.696 45.2819 172.688ZM44.4005 171.28C44.6383 171.961 44.9157 172.404 45.1931 172.487C45.251 172.501 45.3117 172.501 45.3694 172.486C45.4271 172.47 45.4799 172.44 45.5228 172.399C45.5434 172.386 45.5598 172.367 45.5699 172.345C45.5801 172.323 45.5836 172.299 45.5799 172.275C45.5498 172.008 44.9054 171.568 44.4005 171.281V171.28Z" fill="#B0BEC5"/>
<path d="M87.8396 98.8947C87.8396 98.8947 88.8344 130.406 86.6071 142.274C84.2918 154.617 77.239 182.698 77.239 182.698L71.5004 181.956C71.5004 181.956 75.1093 153.599 76.6525 141.324C78.3281 127.95 76.1373 96.6294 76.1373 96.6294L87.8396 98.8947Z" fill="#B0BEC5"/>
<path opacity="0.8" d="M87.8396 98.8947C87.8396 98.8947 88.8344 130.406 86.6071 142.274C84.2918 154.617 77.239 182.698 77.239 182.698L71.5004 181.956C71.5004 181.956 75.1093 153.599 76.6525 141.324C78.3281 127.95 76.1373 96.6294 76.1373 96.6294L87.8396 98.8947Z" fill="white"/>
<path d="M78.4644 183.025L70.2821 181.974L70.3804 180.03L79.284 180.417L78.4644 183.025Z" fill="#B0BEC5"/>
<path d="M45.4112 171.446C44.9869 171.443 44.5683 171.348 44.1842 171.168C44.1713 171.158 44.1605 171.147 44.1524 171.133C44.1444 171.119 44.1393 171.104 44.1375 171.088C44.1391 171.072 44.1446 171.056 44.1536 171.042C44.1625 171.029 44.1747 171.017 44.189 171.009C44.2302 170.983 45.2194 170.421 45.7354 170.602C45.8058 170.624 45.8706 170.662 45.9253 170.711C45.9801 170.761 46.0234 170.822 46.0524 170.89C46.0905 170.956 46.1046 171.033 46.0923 171.108C46.08 171.183 46.0421 171.252 45.9851 171.302C45.815 171.413 45.6131 171.463 45.4112 171.446ZM44.4418 171.08C44.8936 171.282 45.405 171.308 45.8749 171.152C45.9114 171.126 45.9423 171.072 45.8749 170.961C45.8581 170.916 45.8312 170.876 45.7963 170.844C45.7613 170.812 45.7193 170.788 45.6736 170.775C45.2413 170.748 44.8111 170.855 44.441 171.08H44.4418Z" fill="#B0BEC5"/>
<path d="M77.526 188.146C77.1066 188.137 76.6889 188.089 76.2784 188.002C76.2587 187.998 76.2406 187.988 76.2264 187.974C76.2122 187.96 76.2027 187.942 76.1992 187.922C76.196 187.903 76.1993 187.882 76.2086 187.865C76.2179 187.847 76.2326 187.833 76.2507 187.824C76.4314 187.731 78.0452 186.916 78.5247 187.19C78.5699 187.214 78.6081 187.25 78.6358 187.293C78.6635 187.336 78.6798 187.386 78.6833 187.437C78.6934 187.523 78.6817 187.61 78.6492 187.69C78.6168 187.771 78.5647 187.841 78.4978 187.896C78.2123 188.089 77.869 188.177 77.526 188.146ZM76.5931 187.868C77.1798 188.046 77.8111 188.008 78.3718 187.759C78.4151 187.722 78.4487 187.675 78.4695 187.622C78.4902 187.569 78.4975 187.511 78.4907 187.455C78.4909 187.434 78.4858 187.414 78.4758 187.396C78.4658 187.377 78.4512 187.362 78.4336 187.352C78.1704 187.207 77.2581 187.552 76.5931 187.867V187.868Z" fill="#B0BEC5"/>
<path d="M76.3037 188.002C76.2912 188.006 76.2776 188.008 76.2644 188.005C76.2512 188.003 76.2391 187.996 76.2293 187.987C76.2196 187.978 76.2127 187.966 76.2094 187.953C76.2062 187.94 76.2067 187.926 76.211 187.914C76.211 187.841 76.4226 186.114 77.3714 186.217C77.629 186.243 77.7067 186.376 77.7217 186.48C77.7938 186.929 76.83 187.795 76.3449 188.027L76.3037 188.002ZM77.2985 186.388C76.7214 186.388 76.4939 187.339 76.4266 187.735C76.9418 187.441 77.5767 186.761 77.5362 186.492C77.5362 186.492 77.5362 186.404 77.3508 186.389L77.2985 186.388Z" fill="#B0BEC5"/>
<path d="M72.0354 94.8282L71.0842 96.1067C71.005 96.2097 71.1207 96.3444 71.3062 96.3801L88.0465 99.6228C88.1907 99.6537 88.3247 99.6228 88.3453 99.5142L88.7265 98.1223C88.7189 98.0616 88.6906 98.0054 88.6465 97.9632C88.6023 97.9209 88.5449 97.895 88.484 97.8901L72.3144 94.7552C72.2656 94.7413 72.214 94.7408 72.1649 94.7536C72.1159 94.7664 72.0711 94.7922 72.0354 94.8282Z" fill="#B0BEC5"/>
<path d="M73.906 97.0443L73.4732 96.9651C73.394 96.9651 73.329 96.8858 73.344 96.8359L73.8593 95.031C73.8593 94.9795 73.9575 94.9518 74.04 94.9637L74.4728 95.0429C74.5607 95.0429 74.617 95.1222 74.6019 95.1721L74.0867 96.9769C74.0764 97.0293 73.994 97.0602 73.906 97.0443Z" fill="#B0BEC5"/>
<path opacity="0.8" d="M73.906 97.0443L73.4732 96.9651C73.394 96.9651 73.329 96.8858 73.344 96.8359L73.8593 95.031C73.8593 94.9795 73.9575 94.9518 74.04 94.9637L74.4728 95.0429C74.5607 95.0429 74.617 95.1222 74.6019 95.1721L74.0867 96.9769C74.0764 97.0293 73.994 97.0602 73.906 97.0443Z" fill="white"/>
<path d="M84.8412 99.1893L84.4084 99.1013C84.3204 99.1013 84.2642 99.0292 84.2792 98.9777L84.7944 97.1681C84.7944 97.1166 84.8927 97.0888 84.9799 97.1063L85.4127 97.1856C85.5007 97.1856 85.5569 97.2577 85.5419 97.3147L85.0267 99.1196C85.0116 99.1743 84.9292 99.2052 84.8412 99.1893Z" fill="#B0BEC5"/>
<path opacity="0.8" d="M84.8412 99.1893L84.4084 99.1013C84.3204 99.1013 84.2642 99.0292 84.2792 98.9777L84.7944 97.1681C84.7944 97.1166 84.8927 97.0888 84.9799 97.1063L85.4127 97.1856C85.5007 97.1856 85.5569 97.2577 85.5419 97.3147L85.0267 99.1196C85.0116 99.1743 84.9292 99.2052 84.8412 99.1893Z" fill="white"/>
</svg>
