<svg width="269" height="200" viewBox="0 0 269 200" fill="none" xmlns="http://www.w3.org/2000/svg">
<path d="M268.412 175.757H0V175.891H268.412V175.757Z" fill="#EBEBEB"/>
<path d="M241.518 184.394H223.738V184.529H241.518V184.394Z" fill="#EBEBEB"/>
<path d="M177.807 185.855H173.142V185.989H177.807V185.855Z" fill="#EBEBEB"/>
<path d="M223.202 179.412H212.9V179.547H223.202V179.412Z" fill="#EBEBEB"/>
<path d="M51.3474 180.314H28.1622V180.449H51.3474V180.314Z" fill="#EBEBEB"/>
<path d="M59.5279 180.314H56.1302V180.449H59.5279V180.314Z" fill="#EBEBEB"/>
<path d="M120.866 182.58H70.5762V182.714H120.866V182.58Z" fill="#EBEBEB"/>
<path d="M127.228 151.814H23.5722C22.7601 151.813 21.9819 151.489 21.4082 150.915C20.8346 150.34 20.5124 149.561 20.5124 148.749V3.0382C20.5196 2.23091 20.8449 1.45905 21.4178 0.890214C21.9907 0.321375 22.7648 0.00148297 23.5722 0H127.228C128.041 0 128.82 0.322974 129.395 0.897873C129.97 1.47277 130.293 2.2525 130.293 3.06553V148.749C130.293 149.152 130.214 149.55 130.06 149.922C129.906 150.294 129.68 150.632 129.395 150.917C129.111 151.201 128.773 151.427 128.401 151.581C128.029 151.735 127.63 151.814 127.228 151.814ZM23.5722 0.107145C22.7962 0.109239 22.0527 0.418971 21.5047 0.968424C20.9567 1.51788 20.649 2.26221 20.649 3.0382V148.749C20.649 149.525 20.9571 150.27 21.5057 150.82C22.0543 151.369 22.7985 151.679 23.575 151.68H127.228C128.005 151.678 128.749 151.369 129.299 150.82C129.848 150.27 130.157 149.526 130.159 148.749V3.0382C130.157 2.26125 129.848 1.51649 129.299 0.967101C128.749 0.41771 128.005 0.108476 127.228 0.107145H23.5722Z" fill="#EBEBEB"/>
<path d="M243.348 151.814H139.688C138.875 151.813 138.096 151.49 137.521 150.915C136.947 150.341 136.623 149.562 136.622 148.749V3.0382C136.631 2.23033 136.957 1.45837 137.531 0.889646C138.105 0.320926 138.88 0.0012796 139.688 0H243.348C244.155 0.00280562 244.927 0.32328 245.499 0.891977C246.071 1.46067 246.396 2.23178 246.403 3.0382V148.749C246.403 149.56 246.081 150.338 245.509 150.913C244.936 151.487 244.159 151.812 243.348 151.814ZM139.688 0.107145C138.911 0.108476 138.166 0.41771 137.616 0.967101C137.067 1.51649 136.758 2.26125 136.756 3.0382V148.749C136.758 149.526 137.067 150.271 137.616 150.82C138.166 151.369 138.911 151.679 139.688 151.68H243.348C244.125 151.678 244.87 151.369 245.419 150.82C245.968 150.27 246.278 149.526 246.279 148.749V3.0382C246.278 2.2613 245.968 1.51666 245.419 0.967313C244.87 0.417962 244.125 0.108665 243.348 0.107145H139.688Z" fill="#EBEBEB"/>
<path d="M149.195 94.5186L237.674 94.5186V15.283L149.195 15.283V94.5186Z" fill="#E6E6E6"/>
<path d="M145.463 94.5186L235.929 94.5186V15.283L145.463 15.283V94.5186Z" fill="#F0F0F0"/>
<path d="M149.195 97.2031L237.674 97.2031V94.5187L149.195 94.5187V97.2031Z" fill="#E6E6E6"/>
<path d="M139.258 97.2031L229.724 97.2031V94.5187L139.258 94.5187V97.2031Z" fill="#F0F0F0"/>
<path d="M230.717 89.3008V20.5015L150.682 20.5015V89.3008H230.717Z" fill="#FAFAFA"/>
<path d="M214.634 89.3065L184.021 20.5015H152.69L183.302 89.3065H214.634Z" fill="white"/>
<path d="M228.301 77.8075C228.399 77.8075 228.493 77.7685 228.563 77.6991C228.632 77.6296 228.671 77.5354 228.671 77.4372V23.8994C228.671 23.8012 228.632 23.707 228.563 23.6375C228.493 23.5681 228.399 23.5291 228.301 23.5291C228.203 23.5291 228.109 23.5681 228.039 23.6375C227.97 23.707 227.931 23.8012 227.931 23.8994V77.4401C227.931 77.5378 227.971 77.6312 228.04 77.7001C228.109 77.7689 228.203 77.8075 228.301 77.8075Z" fill="#F0F0F0"/>
<path d="M171.526 89.3065L140.911 20.5015H130.072L160.687 89.3065H171.526Z" fill="white"/>
<path d="M151.342 89.3008V20.5015H150.682V89.3008H151.342Z" fill="#E6E6E6"/>
<g opacity="0.5">
<path d="M144.229 27.6683H232.713L233.191 22.531H144.712L144.229 27.6683Z" fill="#E6E6E6"/>
<path d="M144.229 36.15H232.713L233.191 31.0127H144.712L144.229 36.15Z" fill="#E6E6E6"/>
<path d="M144.229 44.6319H232.713L233.191 39.4946H144.712L144.229 44.6319Z" fill="#E6E6E6"/>
<path d="M144.229 53.1136H232.713L233.191 47.9763H144.712L144.229 53.1136Z" fill="#E6E6E6"/>
<path d="M144.229 61.6011H232.713L233.191 56.4639H144.712L144.229 61.6011Z" fill="#E6E6E6"/>
<path d="M144.229 70.0828H232.713L233.191 64.9456H144.712L144.229 70.0828Z" fill="#E6E6E6"/>
</g>
<path d="M41.7978 175.757H112.304L112.304 15.2887H41.7978L41.7978 175.757Z" fill="#F0F0F0"/>
<path d="M41.797 175.757H110.913L110.913 15.2887H41.797L41.797 175.757Z" fill="#F5F5F5"/>
<path d="M107.274 175.756L107.274 18.928L45.4371 18.928L45.4371 175.756H107.274Z" fill="#EBEBEB"/>
<path d="M62.2231 90.7234C58.7175 89.757 55.2119 92.8707 51.707 91.9042C51.321 91.7422 50.9892 91.4735 50.7505 91.1296C50.5118 90.7857 50.3761 90.3809 50.3594 89.9626C50.3594 89.222 50.9663 89.0069 51.707 89.2054C55.2126 90.1719 58.7182 87.0582 62.2231 88.0246C62.6103 88.1845 62.9435 88.4521 63.1832 88.7956C63.423 89.139 63.5592 89.5441 63.5757 89.9626C63.5757 90.7234 62.9638 90.9327 62.2231 90.7234Z" fill="white"/>
<path d="M46.3871 175.756L46.3871 18.928H45.4422L45.4422 175.756H46.3871Z" fill="#E0E0E0"/>
<path d="M223.046 172.219H235.693V117.377H223.046V172.219Z" fill="#F0F0F0"/>
<path d="M170.904 175.692H233.267V172.219H170.904V175.692Z" fill="#F0F0F0"/>
<path d="M223.052 117.372H168.477V172.214H223.052V117.372Z" fill="#F5F5F5"/>
<path d="M218.075 124.125H173.449V142.109H218.075V124.125Z" fill="#F0F0F0"/>
<path d="M218.075 147.477H173.449V165.461H218.075V147.477Z" fill="#F0F0F0"/>
<path d="M190.753 125.639H200.776C201.456 125.639 202.008 125.087 202.008 124.407V124.406C202.008 123.726 201.456 123.174 200.776 123.174H190.753C190.073 123.174 189.521 123.726 189.521 124.406V124.407C189.521 125.087 190.073 125.639 190.753 125.639Z" fill="#F5F5F5"/>
<path d="M190.75 148.998H200.773C201.1 148.997 201.413 148.866 201.644 148.635C201.876 148.404 202.006 148.091 202.008 147.764C202 147.441 201.866 147.135 201.635 146.909C201.405 146.684 201.096 146.557 200.773 146.556H190.75C190.424 146.557 190.111 146.688 189.88 146.919C189.65 147.15 189.521 147.464 189.521 147.79C189.527 148.112 189.66 148.419 189.89 148.645C190.119 148.87 190.428 148.997 190.75 148.998Z" fill="#F5F5F5"/>
<path d="M211.289 116.292C211.041 116.292 210.803 116.194 210.627 116.019C210.451 115.844 210.351 115.606 210.35 115.358V86.8632C210.352 86.6146 210.451 86.3766 210.627 86.2008C210.803 86.025 211.041 85.9256 211.289 85.9241C211.537 85.9267 211.774 86.0266 211.949 86.2023C212.124 86.378 212.223 86.6153 212.224 86.8632V115.358C212.223 115.605 212.124 115.842 211.949 116.017C211.774 116.192 211.537 116.291 211.289 116.292Z" fill="#EBEBEB"/>
<path d="M220.061 115.186H202.512V117.398H220.061V115.186Z" fill="#F0F0F0"/>
<path d="M216.147 102.99C216.023 102.99 215.904 102.941 215.817 102.853C215.729 102.765 215.68 102.647 215.68 102.523V88.2754C215.68 88.151 215.729 88.0316 215.817 87.9431C215.904 87.8547 216.023 87.8043 216.147 87.803C216.272 87.8043 216.391 87.8547 216.478 87.9431C216.566 88.0316 216.615 88.151 216.615 88.2754V102.534C216.612 102.656 216.562 102.772 216.474 102.858C216.387 102.943 216.27 102.991 216.147 102.99L216.147 102.99Z" fill="#E0E0E0"/>
<path d="M197.643 93.2036C197.643 93.2036 197.992 82.7249 211.289 82.7249C224.587 82.7249 224.93 93.2036 224.93 93.2036H197.643Z" fill="#E6E6E6"/>
<path d="M134.206 200C191.69 200 238.291 197.279 238.291 193.923C238.291 190.567 191.69 187.846 134.206 187.846C76.7214 187.846 30.121 190.567 30.121 193.923C30.121 197.279 76.7214 200 134.206 200Z" fill="#F5F5F5"/>
<path d="M125.434 47.81C125.461 46.6717 126.508 45.1853 130.728 44.9163C134.947 44.6474 136.514 44.8444 138.243 48.1372C140.122 51.686 142.27 55.6525 140.868 59.2869C139.467 62.9212 135.049 65.0634 131.887 66.9848C128.726 68.9063 124.018 75.3645 124.018 75.3645C124.018 75.3645 115.24 50.9985 125.434 47.81Z" fill="#263238"/>
<path d="M127.361 96.4299C127.361 96.4299 133.755 129.251 136.026 142.596C138.382 156.475 140.369 186.331 140.369 186.331H143.922C143.922 186.331 148.448 160.564 143.922 141.425C144.229 126.147 141.238 94.3726 141.238 94.3726L127.361 96.4299Z" fill="#FF8B7B"/>
<path d="M132.021 95.7376C132.021 95.7376 146.044 130.062 150.929 142.683C157.779 151.863 174.995 171.333 175.94 171.725L177.185 168.921C177.185 168.921 166.663 148.344 158.181 138.177C155.927 123.065 145.185 93.7917 145.185 93.7917L132.021 95.7376Z" fill="#FF8B7B"/>
<path d="M125.418 75.0806C124.412 76.2614 123.373 77.389 122.337 78.5381C121.301 79.6872 120.233 80.7925 119.164 81.9092C118.096 83.026 117.017 84.1384 115.9 85.2171C114.784 86.2957 113.662 87.3643 112.486 88.4379L112.663 88.2503C112.411 88.5402 112.118 88.7917 111.794 88.9967C111.528 89.1571 111.247 89.292 110.956 89.3994C110.488 89.568 110.001 89.6779 109.506 89.7266C108.69 89.8069 107.868 89.8069 107.053 89.7266C105.583 89.5859 104.126 89.3347 102.693 88.9751C101.298 88.6314 99.9342 88.2287 98.5815 87.7943C97.2289 87.36 95.8971 86.8761 94.5927 86.318C94.3343 86.2096 94.1256 86.0089 94.0073 85.7549C93.8889 85.501 93.8695 85.212 93.9526 84.9445C94.0358 84.6769 94.2156 84.45 94.4571 84.3078C94.6986 84.1657 94.9843 84.1187 95.2586 84.1758C96.5846 84.4548 97.943 84.7396 99.2855 84.9812C100.628 85.2228 101.97 85.4587 103.306 85.6284C104.597 85.8127 105.899 85.915 107.204 85.9347C107.777 85.9461 108.351 85.9011 108.916 85.8003C109.111 85.7646 109.301 85.7089 109.485 85.6342C109.519 85.6219 109.55 85.6017 109.576 85.5752C109.576 85.5752 109.538 85.5752 109.49 85.6399L109.667 85.4522C110.741 84.3786 111.761 83.305 112.792 82.2048L115.873 78.8494L121.993 72.0798C122.392 71.6382 122.949 71.3714 123.543 71.337C124.138 71.3027 124.722 71.5035 125.169 71.8961C125.617 72.2888 125.892 72.8417 125.936 73.4355C125.979 74.0293 125.787 74.6164 125.401 75.0699L125.418 75.0806Z" fill="#FF8B7B"/>
<path d="M96.1611 84.4798L93.9441 80.5967L92.3873 84.8164C92.3873 84.8164 94.2713 86.9636 96.0647 86.5422L96.1611 84.4798Z" fill="#FF8B7B"/>
<path d="M91.1317 80.7089L90.5952 82.5181C90.534 82.7206 90.534 82.9367 90.5951 83.1392C90.6563 83.3418 90.7759 83.5217 90.939 83.6565L92.3937 84.8372L93.929 80.5945L92.5627 80.0574C92.4266 80.0002 92.2803 79.9718 92.1327 79.9737C91.9852 79.9757 91.8396 80.008 91.7051 80.0688C91.5706 80.1295 91.4501 80.2173 91.3511 80.3267C91.252 80.4361 91.1766 80.5647 91.1295 80.7046L91.1317 80.7089Z" fill="#FF8B7B"/>
<path d="M125.461 69.6642C122.304 69.1271 120.908 71.3282 119.4 72.9872C119.76 75.9182 124.929 81.9306 124.929 81.9306C124.929 81.9306 131.2 70.5983 125.461 69.6642Z" fill="#B0BEC5"/>
<path d="M121.263 73.2604C121.666 76.4547 123.191 85.4197 127.464 98.8403L146.097 96.0919C144.808 89.3388 143.031 82.9561 143.853 69.5081C143.876 69.1372 143.823 68.7655 143.696 68.4161C143.569 68.0667 143.372 67.747 143.117 67.4767C142.862 67.2065 142.554 66.9915 142.213 66.845C141.871 66.6986 141.503 66.6238 141.132 66.6253C139.87 66.6253 138.313 66.6792 136.692 66.841C133.968 67.0489 131.263 67.449 128.596 68.0383C126.878 68.4568 125.058 69.0156 123.673 69.4664C122.894 69.7225 122.228 70.2407 121.789 70.9328C121.349 71.6249 121.163 72.448 121.263 73.2619L121.263 73.2604Z" fill="#B0BEC5"/>
<path d="M128.596 68.0269L136.692 66.8296C136.692 66.8296 136.321 69.9375 131.222 74.0206C127.346 70.4265 128.596 68.0269 128.596 68.0269Z" fill="white"/>
<path d="M134.545 57.832C134.416 60.5164 134.616 65.3474 136.692 66.8294C135.384 68.9485 133.594 70.7288 131.468 72.0257C130.666 71.6911 129.972 71.1398 129.465 70.4334C128.957 69.7271 128.657 68.8935 128.596 68.026C131.401 66.9042 131.007 64.762 130.207 62.8132L134.545 57.832Z" fill="#FF8B7B"/>
<path opacity="0.2" d="M132.773 59.8674L130.201 62.8093C130.397 63.2614 130.551 63.7303 130.663 64.2101C131.736 63.8879 133.095 62.444 133.041 61.2618C133.037 60.7845 132.947 60.3119 132.773 59.8674Z" fill="black"/>
<path d="M136.584 52.6519C136.187 57.0384 136.111 58.9008 133.83 61.0905C130.394 64.3919 125.096 62.948 124.167 58.5298C123.335 54.5575 124.119 48.0511 128.462 46.4245C129.42 46.0577 130.457 45.9427 131.472 46.0903C132.488 46.238 133.449 46.6433 134.263 47.2678C135.078 47.8923 135.719 48.715 136.125 49.6576C136.531 50.6001 136.689 51.6309 136.584 52.6519Z" fill="#FF8B7B"/>
<path d="M133.218 49.2383C132.832 51.863 134.383 55.0788 135.725 55.1112C137.067 55.1435 138.077 50.0775 138.077 50.0775L133.218 49.2383Z" fill="#263238"/>
<path d="M125.762 47.8958C128.623 49.9252 137.124 52.9691 137.304 50.3408C137.484 47.7125 133.933 45.5947 131.307 45.5947C128.682 45.5947 126.568 46.6482 125.762 47.8958Z" fill="#263238"/>
<path opacity="0.2" d="M135.333 138.635L143.922 135.256C143.879 133.211 143.809 131.042 143.707 128.814L134.206 132.263C134.598 134.539 134.99 136.697 135.333 138.635Z" fill="black"/>
<path opacity="0.2" d="M155.142 124.625L145.211 128.243C145.995 130.185 146.752 132.076 147.46 133.858L156.586 130.257C156.146 128.436 155.679 126.547 155.142 124.625Z" fill="black"/>
<path d="M130.153 53.8058C130.153 54.1654 129.949 54.453 129.713 54.4394C129.477 54.4257 129.299 54.1388 129.31 53.7843C129.321 53.4297 129.514 53.1371 129.75 53.1457C129.986 53.1543 130.164 53.4463 130.153 53.8058Z" fill="#263238"/>
<path d="M126.109 53.691C126.119 53.3325 125.938 53.0365 125.703 53.0298C125.469 53.0231 125.271 53.3084 125.261 53.6668C125.251 54.0253 125.432 54.3213 125.666 54.328C125.901 54.3347 126.099 54.0494 126.109 53.691Z" fill="#263238"/>
<path d="M125.81 53.0542L124.957 52.7803C124.957 52.7803 125.381 53.4685 125.81 53.0542Z" fill="#263238"/>
<path d="M127.163 54.3381C126.821 55.1443 126.37 55.8993 125.821 56.5817C126 56.718 126.207 56.8135 126.426 56.8617C126.646 56.9099 126.874 56.9096 127.093 56.8607L127.163 54.3381Z" fill="#FF5652"/>
<path d="M128.36 58.1925C128.161 58.2219 127.96 58.2344 127.759 58.2299C127.732 58.2273 127.707 58.2151 127.688 58.1954C127.669 58.1757 127.658 58.1499 127.657 58.1228C127.657 58.1089 127.66 58.0952 127.665 58.0825C127.671 58.0698 127.679 58.0583 127.689 58.0487C127.699 58.0392 127.711 58.0318 127.724 58.0269C127.736 58.0221 127.75 58.02 127.764 58.0207C128.209 58.043 128.652 57.9604 129.059 57.7795C129.465 57.5986 129.824 57.3245 130.105 56.9794C130.112 56.9676 130.122 56.9575 130.134 56.9496C130.145 56.9417 130.158 56.9362 130.172 56.9335C130.186 56.9307 130.2 56.9307 130.213 56.9335C130.227 56.9363 130.24 56.9418 130.252 56.9497C130.263 56.9576 130.273 56.9677 130.28 56.9795C130.288 56.9913 130.293 57.0044 130.295 57.0182C130.298 57.032 130.297 57.0461 130.294 57.0597C130.291 57.0733 130.285 57.0861 130.277 57.0973C129.806 57.6991 129.118 58.0922 128.36 58.1925Z" fill="#263238"/>
<path d="M137.529 54.9765C137.427 55.386 137.244 55.7711 136.991 56.1094C136.739 56.4477 136.422 56.7323 136.058 56.9469C135.087 57.5157 134.314 56.716 134.346 55.6475C134.373 54.6867 134.915 53.232 136.01 53.0975C136.249 53.0719 136.491 53.1066 136.713 53.1985C136.935 53.2903 137.13 53.4363 137.282 53.6232C137.433 53.8101 137.535 54.0319 137.578 54.2683C137.621 54.5047 137.604 54.7482 137.529 54.9765Z" fill="#FF8B7B"/>
<path d="M131.657 51.9592C131.628 51.9625 131.6 51.9594 131.573 51.9501C131.546 51.9408 131.521 51.9254 131.501 51.9052C131.314 51.7189 131.084 51.5799 130.832 51.4997C130.58 51.4194 130.313 51.4002 130.052 51.4435C130.001 51.4461 129.951 51.4308 129.911 51.4004C129.871 51.3699 129.842 51.3263 129.831 51.2771C129.819 51.2278 129.825 51.1761 129.848 51.131C129.871 51.0858 129.909 51.0501 129.955 51.0301C130.284 50.9736 130.621 50.9956 130.939 51.0945C131.257 51.1934 131.548 51.3662 131.786 51.5989C131.806 51.6179 131.822 51.6409 131.833 51.6663C131.844 51.6917 131.849 51.719 131.849 51.7467C131.849 51.7743 131.844 51.8016 131.833 51.827C131.822 51.8524 131.806 51.8754 131.786 51.8944C131.77 51.9132 131.75 51.9287 131.728 51.9398C131.706 51.9509 131.681 51.9575 131.657 51.9592Z" fill="#263238"/>
<path d="M125.08 51.6213C125.054 51.6167 125.029 51.6067 125.007 51.592C124.985 51.5772 124.966 51.5581 124.952 51.5358C124.936 51.5134 124.925 51.4882 124.919 51.4616C124.913 51.4349 124.913 51.4074 124.918 51.3805C124.923 51.3537 124.933 51.3282 124.948 51.3055C124.963 51.2827 124.983 51.2632 125.006 51.2481C125.275 51.0522 125.588 50.9238 125.918 50.8737C126.248 50.8237 126.585 50.8534 126.9 50.9605C126.95 50.9837 126.988 51.0249 127.008 51.0756C127.027 51.1263 127.027 51.1827 127.006 51.233C126.986 51.2833 126.946 51.3237 126.897 51.3459C126.847 51.3682 126.791 51.3705 126.739 51.3524C126.489 51.2697 126.222 51.2485 125.961 51.2906C125.7 51.3326 125.454 51.4367 125.242 51.594C125.194 51.6256 125.136 51.6372 125.08 51.6264V51.6213Z" fill="#263238"/>
<path d="M129.852 53.1459L128.999 52.8777C128.999 52.8777 129.423 53.581 129.852 53.1459Z" fill="#263238"/>
<path d="M127.464 98.8404L133.696 135.699L157.032 128.779C155.142 109.298 150.311 99.6509 146.096 96.0913L127.464 98.8404Z" fill="#263238"/>
<path opacity="0.2" d="M136.917 119.551L141.582 111.886L140.782 106.492L136.917 119.551Z" fill="black"/>
<path d="M143.617 68.4668C144.014 68.8213 144.503 69.229 144.954 69.6051C145.404 69.9812 145.893 70.3674 146.376 70.7327C147.337 71.4575 148.303 72.1709 149.307 72.8181C151.216 74.1104 153.305 75.1143 155.507 75.7973C155.636 75.8405 155.77 75.862 155.899 75.8937L156.092 75.9418H156.017C155.801 75.9418 155.721 76.0382 155.781 76.0138C156.089 75.8057 156.353 75.5394 156.559 75.2299C157.214 74.2902 157.778 73.2908 158.245 72.2449C158.781 71.1713 159.251 70.0157 159.699 68.8573C160.147 67.6988 160.601 66.5223 161.02 65.3624C161.113 65.0978 161.301 64.8772 161.547 64.7438C161.794 64.6103 162.081 64.5736 162.354 64.6407C162.626 64.7078 162.863 64.8739 163.02 65.1067C163.176 65.3395 163.24 65.6222 163.199 65.8996C162.833 68.4938 162.244 71.0515 161.438 73.5444C161.012 74.8776 160.443 76.161 159.742 77.3721C159.294 78.1552 158.691 78.8384 157.97 79.3799C157.379 79.7975 156.675 80.0259 155.952 80.035C155.846 80.043 155.74 80.043 155.635 80.035L155.383 80.0026L155.109 79.9544C154.932 79.9221 154.743 79.9005 154.572 79.8581C153.187 79.5655 151.837 79.1266 150.545 78.5486C149.297 78.0012 148.09 77.3661 146.932 76.648C145.786 75.955 144.676 75.2025 143.609 74.3936C143.076 73.9928 142.555 73.5796 142.047 73.1539C141.51 72.7224 141.048 72.3053 140.512 71.7955C140.103 71.3801 139.87 70.8237 139.861 70.2413C139.851 69.659 140.065 69.0951 140.46 68.6664C140.854 68.2377 141.398 67.9769 141.979 67.9378C142.56 67.8988 143.134 68.0846 143.582 68.4567L143.617 68.4668Z" fill="#FF8B7B"/>
<path d="M140.927 66.6148C144.148 66.4271 145.372 68.1019 146.698 69.9054C146.043 72.7818 142.554 77.7055 142.554 77.7055C142.554 77.7055 135.121 66.9585 140.927 66.6148Z" fill="#B0BEC5"/>
<path d="M160.854 65.6272L161.66 60.8977L164.575 64.3444C164.575 64.3444 163.555 67.0288 161.724 67.238L160.854 65.6272Z" fill="#FF8B7B"/>
<path d="M164.322 59.6148L166.072 61.1501C166.226 61.2859 166.325 61.4736 166.35 61.6775C166.375 61.8814 166.324 62.0873 166.207 62.2561L164.269 64.9994L161.665 60.9006L163.276 59.6011C163.425 59.4824 163.61 59.419 163.801 59.4215C163.992 59.4239 164.176 59.4922 164.322 59.6148Z" fill="#FF8B7B"/>
<path d="M133.626 193.048C134.171 192.652 134.776 192.348 135.419 192.147C135.419 192.147 138.597 190.349 140.251 184.956L143.928 184.037C144.019 184.015 144.115 184.012 144.207 184.028C144.3 184.045 144.388 184.081 144.465 184.135C144.543 184.188 144.608 184.257 144.657 184.338C144.706 184.418 144.738 184.508 144.749 184.601C144.782 184.889 144.803 185.224 144.841 185.492C144.881 186.077 144.881 186.663 144.841 187.248C144.808 189.068 144.605 193.153 144.605 193.153H144.18C144.178 191.909 144.102 190.667 143.955 189.433C143.739 188.231 142.881 189.653 142.419 191.011C141.958 192.37 140.031 193.824 137.25 193.888C134.001 193.983 132.681 193.837 133.626 193.048Z" fill="#263238"/>
<path d="M174.619 180.376C174.723 179.711 174.935 179.067 175.246 178.47C175.246 178.47 176.218 174.947 173.566 169.967L175.507 166.719C175.555 166.638 175.619 166.567 175.696 166.513C175.773 166.458 175.861 166.421 175.953 166.403C176.046 166.385 176.141 166.388 176.233 166.41C176.325 166.432 176.41 166.474 176.485 166.532C176.715 166.714 176.968 166.934 177.182 167.069C177.624 167.455 178.04 167.869 178.428 168.308C179.695 169.619 182.455 172.657 182.455 172.657L182.154 172.963C181.272 172.085 180.339 171.26 179.357 170.494C178.359 169.796 178.767 171.401 179.395 172.695C180.023 173.989 179.695 176.372 177.784 178.385C175.542 180.776 174.511 181.608 174.619 180.376Z" fill="#263238"/>
<path opacity="0.9" d="M160.467 26.0032L103.865 20.5762C102.472 20.449 101.084 20.8775 100.006 21.7683C98.9268 22.6591 98.2436 23.9401 98.1048 25.3323L89.9934 110.049C89.8617 111.442 90.2879 112.831 91.1785 113.911C92.0691 114.991 93.3514 115.673 94.7445 115.809L151.342 121.236C152.736 121.365 154.124 120.937 155.203 120.046C156.282 119.155 156.965 117.873 157.102 116.48L165.219 31.7905C165.287 31.0986 165.218 30.3999 165.016 29.7345C164.814 29.0691 164.483 28.45 164.042 27.9126C163.601 27.3751 163.058 26.9299 162.445 26.6023C161.831 26.2746 161.159 26.0711 160.467 26.0032ZM148.351 58.4347C147.96 62.4797 146.31 66.3004 143.636 69.3602C140.961 72.4199 137.395 74.5649 133.439 75.494C129.482 76.4231 125.334 76.0896 121.577 74.5402C117.82 72.9909 114.643 70.3036 112.492 66.8558C110.34 63.408 109.323 59.3728 109.583 55.3172C109.842 51.2615 111.366 47.389 113.939 44.2436C116.512 41.0983 120.007 38.838 123.93 37.7803C127.854 36.7226 132.011 36.9207 135.817 38.3466C139.823 39.8526 143.222 42.636 145.489 46.2668C147.755 49.8976 148.763 54.1738 148.357 58.4347H148.351Z" fill="white"/>
<path d="M131.862 5.26493L137.993 6.44067C138.745 6.59942 139.413 7.0298 139.869 7.64963C140.324 8.26946 140.535 9.03533 140.462 9.80103L139.276 20.6019C139.26 20.7434 139.233 20.8834 139.195 21.0204C139.031 21.6613 138.627 22.2145 138.066 22.5662C137.506 22.9178 136.832 23.041 136.183 22.9102L130.053 21.7561C129.367 21.6101 128.749 21.2384 128.299 20.7004C127.848 20.1624 127.591 19.489 127.568 18.7876C127.554 18.6441 127.554 18.4997 127.568 18.3562L128.754 7.55528C128.789 7.19254 128.9 6.84117 129.079 6.52409C129.259 6.20701 129.503 5.93133 129.796 5.71503C130.09 5.49872 130.425 5.34665 130.781 5.26873C131.137 5.1908 131.506 5.18878 131.862 5.26278V5.26493ZM134.423 10.4187C134.139 10.3618 133.847 10.3653 133.564 10.429C133.282 10.4926 133.016 10.6151 132.784 10.7882C132.552 10.9614 132.359 11.1815 132.218 11.4341C132.077 11.6868 131.99 11.9663 131.964 12.2546C131.901 12.8659 132.067 13.479 132.43 13.975C132.793 14.471 133.327 14.8145 133.929 14.939C134.213 14.9968 134.506 14.994 134.789 14.9308C135.071 14.8675 135.337 14.7452 135.57 14.5718C135.802 14.3985 135.995 14.178 136.136 13.9249C136.277 13.6718 136.362 13.3918 136.388 13.1031C136.45 12.492 136.283 11.8795 135.921 11.3838C135.558 10.8881 135.024 10.5443 134.423 10.4187Z" fill="#263238"/>
<path d="M150.752 28.1455C150.627 28.1456 150.505 28.1103 150.399 28.0437C150.294 27.9772 150.209 27.8821 150.156 27.7694L147.788 22.8796C147.629 22.5469 147.386 22.2609 147.084 22.0493C146.781 21.8377 146.43 21.7076 146.062 21.6715L118.834 19.0626C118.467 19.0272 118.096 19.0871 117.759 19.2366C117.421 19.3861 117.128 19.6202 116.907 19.9161L113.654 24.2753C113.549 24.4177 113.392 24.5126 113.217 24.5391C113.042 24.5656 112.864 24.5215 112.722 24.4166C112.579 24.3117 112.484 24.1546 112.458 23.9797C112.431 23.8049 112.475 23.6267 112.58 23.4843L115.834 19.1251C116.192 18.6487 116.666 18.2717 117.211 18.0302C117.756 17.7887 118.354 17.6905 118.947 17.7452L146.17 20.3541C146.763 20.4142 147.331 20.6247 147.821 20.9657C148.31 21.3067 148.704 21.7669 148.966 22.3028L151.328 27.1927C151.377 27.2932 151.4 27.4044 151.395 27.516C151.389 27.6277 151.355 27.7361 151.296 27.831C151.237 27.9259 151.155 28.0043 151.057 28.0588C150.96 28.1134 150.85 28.1422 150.738 28.1427L150.752 28.1455Z" fill="#B0BEC5"/>
<path d="M95.0184 43.2352L94.587 43.192L94.8876 40.0409L95.3276 40.0841L95.0184 43.2352ZM95.5556 37.1365L95.1241 37.0933L95.8058 29.9534L96.2459 29.9965L95.5556 37.1365Z" fill="#B0BEC5"/>
<path d="M151.852 121.454C151.673 121.456 151.494 121.447 151.315 121.427L94.7179 116.005C93.2664 115.864 91.9301 115.153 91.0023 114.028C90.0744 112.903 89.6306 111.456 89.7683 110.004L97.879 25.3101C98.0217 23.8592 98.7333 22.5239 99.858 21.5963C100.983 20.6687 102.429 20.2244 103.881 20.3605L160.511 25.766C161.962 25.9075 163.299 26.6185 164.228 27.7434C165.156 28.8683 165.601 30.3153 165.465 31.7676L157.322 116.492C157.188 117.852 156.554 119.113 155.544 120.032C154.533 120.951 153.218 121.463 151.852 121.468V121.454ZM103.361 20.7798C102.103 20.7836 100.892 21.2542 99.9622 22.1003C99.0322 22.9463 98.4495 24.1076 98.327 25.359L90.1868 110.049C90.0654 111.385 90.476 112.714 91.3295 113.748C92.1829 114.783 93.4102 115.439 94.7445 115.573L151.385 120.989C152.721 121.113 154.051 120.704 155.085 119.85C156.119 118.995 156.773 117.767 156.904 116.432L165.02 31.7425C165.143 30.4074 164.733 29.0779 163.881 28.0433C163.028 27.0087 161.801 26.3528 160.467 26.2183L103.843 20.7963C103.682 20.7798 103.521 20.7747 103.36 20.7747L103.361 20.7798ZM129.01 76.2771C128.377 76.2771 127.738 76.2447 127.099 76.1858C124.31 75.9167 121.611 75.0554 119.181 73.6593C116.752 72.2633 114.649 70.3648 113.012 68.0907C111.375 65.8166 110.243 63.2193 109.691 60.4724C109.138 57.7256 109.179 54.8924 109.809 52.1624C110.439 49.4324 111.645 46.8684 113.346 44.6418C115.047 42.4152 117.203 40.5774 119.671 39.2511C122.139 37.9248 124.862 37.1407 127.658 36.9511C130.453 36.7615 133.257 37.1709 135.881 38.1518C137.423 38.7252 138.884 39.4937 140.23 40.4385C143.666 42.8324 146.249 46.2594 147.604 50.2218C148.958 54.1842 149.014 58.4753 147.764 62.4717C146.513 66.4681 144.02 69.9615 140.648 72.4442C137.275 74.9269 133.199 76.2696 129.012 76.2771H129.01ZM128.962 37.3414C125.235 37.3438 121.588 38.4286 118.465 40.4641C115.342 42.4996 112.878 45.3982 111.371 48.8077C109.865 52.2172 109.381 55.9909 109.978 59.6703C110.575 63.3497 112.228 66.7765 114.736 69.5344C117.244 72.2922 120.498 74.2624 124.105 75.2057C127.711 76.1489 131.513 76.0245 135.05 74.8477C138.587 73.6709 141.706 71.4922 144.029 68.5764C146.351 65.6606 147.776 62.1331 148.132 58.4226C148.459 55.0264 147.876 51.6044 146.443 48.5082C145.01 45.4119 142.778 42.753 139.977 40.8046C138.663 39.8795 137.234 39.1287 135.726 38.571C134.146 37.9766 132.494 37.5957 130.814 37.4385C130.198 37.3745 129.58 37.3424 128.961 37.3421L128.962 37.3414Z" fill="#B0BEC5"/>
<path opacity="0.8" d="M135.817 38.3502C132.226 37.0075 128.318 36.7548 124.585 37.6238C120.851 38.4927 117.456 40.4446 114.827 43.2348C112.198 46.0249 110.451 49.5291 109.805 53.3081C109.16 57.087 109.644 60.9724 111.198 64.4773L92.946 79.5511L98.1422 25.3308C98.281 23.9386 98.9642 22.6577 100.043 21.7668C101.122 20.876 102.509 20.4475 103.902 20.5747L122.659 22.3725L128.66 29.6519L135.817 38.3502Z" fill="#B0BEC5"/>
<path opacity="0.5" d="M165.219 31.7639L161.585 69.6045L148.166 53.3441C147.734 50.7939 146.799 48.355 145.417 46.169C144.034 43.983 142.231 42.0935 140.112 40.6103L158.085 25.7673L160.469 25.9982C161.862 26.1354 163.145 26.8192 164.035 27.8998C164.926 28.9804 165.351 30.3699 165.219 31.7639Z" fill="#B0BEC5"/>
<path d="M158.084 25.7689L140.111 40.6119C138.781 39.6803 137.338 38.9209 135.817 38.3517L128.64 29.6521L122.622 22.3748L158.084 25.7689Z" fill="#B0BEC5"/>
<path opacity="0.5" d="M142.92 84.2213L110.037 81.0817C109.282 81.0096 108.612 81.563 108.54 82.3178L108.439 83.3767C108.367 84.1315 108.92 84.8018 109.675 84.8738L142.558 88.0134C143.313 88.0855 143.983 87.5321 144.055 86.7773L144.157 85.7184C144.229 84.9636 143.675 84.2933 142.92 84.2213Z" fill="#B0BEC5"/>
<path opacity="0.5" d="M139.64 90.7975L112.013 88.1598C111.259 88.0877 110.588 88.6412 110.516 89.3959L110.415 90.4549C110.343 91.2096 110.896 91.8799 111.651 91.952L139.278 94.5897C140.033 94.6618 140.703 94.1083 140.775 93.3536L140.877 92.2946C140.949 91.5399 140.395 90.8696 139.64 90.7975Z" fill="#B0BEC5"/>
<path opacity="0.5" d="M107.086 105.17L98.6679 104.366L98.5363 105.744L106.954 106.548L107.086 105.17Z" fill="#B0BEC5"/>
<path opacity="0.5" d="M115.774 106.005L108.986 105.357L108.854 106.735L115.643 107.383L115.774 106.005Z" fill="#B0BEC5"/>
<path opacity="0.5" d="M117.883 109.333L98.3709 107.47L98.2393 108.848L117.751 110.711L117.883 109.333Z" fill="#B0BEC5"/>
<path opacity="0.5" d="M121.795 104.63L98.7923 102.329L98.6538 103.715L121.657 106.015L121.795 104.63Z" fill="#B0BEC5"/>
<path d="M137.427 6.18927L131.2 5.05669C130.829 4.99096 130.449 4.99895 130.081 5.0802C129.714 5.16144 129.366 5.31435 129.057 5.53019C128.748 5.74603 128.485 6.02056 128.283 6.3381C128.08 6.65564 127.943 7.00996 127.877 7.38082L125.935 18.1975C125.907 18.3395 125.895 18.4842 125.898 18.629C125.876 19.3157 126.1 19.9876 126.53 20.5233C126.961 21.0589 127.568 21.4229 128.244 21.5493L134.455 22.6819C135.131 22.8039 135.828 22.6785 136.42 22.3286C137.011 21.9787 137.457 21.4277 137.676 20.7762C137.727 20.6408 137.765 20.5006 137.788 20.3577L139.726 9.541C139.862 8.79211 139.697 8.01989 139.266 7.39225C138.836 6.7646 138.175 6.33227 137.427 6.18927ZM133.482 10.1997C133.93 10.2763 134.345 10.4844 134.675 10.7975C135.004 11.1106 135.233 11.5146 135.332 11.9582C135.432 12.4017 135.397 12.8648 135.233 13.2886C135.068 13.7124 134.782 14.0778 134.409 14.3382C134.036 14.5987 133.595 14.7425 133.14 14.7515C132.686 14.7604 132.239 14.634 131.857 14.3883C131.474 14.1427 131.173 13.7889 130.992 13.3719C130.811 12.9549 130.759 12.4935 130.84 12.0464C130.949 11.4529 131.287 10.9263 131.782 10.5806C132.276 10.2349 132.887 10.098 133.482 10.1997Z" fill="#263238"/>
<path opacity="0.2" d="M137.427 6.18927L131.2 5.05669C130.829 4.99096 130.449 4.99895 130.081 5.0802C129.714 5.16144 129.366 5.31435 129.057 5.53019C128.748 5.74603 128.485 6.02056 128.283 6.3381C128.08 6.65564 127.943 7.00996 127.877 7.38082L125.935 18.1975C125.907 18.3395 125.895 18.4842 125.898 18.629C125.876 19.3157 126.1 19.9876 126.53 20.5233C126.961 21.0589 127.568 21.4229 128.244 21.5493L134.455 22.6819C135.131 22.8039 135.828 22.6785 136.42 22.3286C137.011 21.9787 137.457 21.4277 137.676 20.7762C137.727 20.6408 137.765 20.5006 137.788 20.3577L139.726 9.541C139.862 8.79211 139.697 8.01989 139.266 7.39225C138.836 6.7646 138.175 6.33227 137.427 6.18927ZM133.482 10.1997C133.93 10.2763 134.345 10.4844 134.675 10.7975C135.004 11.1106 135.233 11.5146 135.332 11.9582C135.432 12.4017 135.397 12.8648 135.233 13.2886C135.068 13.7124 134.782 14.0778 134.409 14.3382C134.036 14.5987 133.595 14.7425 133.14 14.7515C132.686 14.7604 132.239 14.634 131.857 14.3883C131.474 14.1427 131.173 13.7889 130.992 13.3719C130.811 12.9549 130.759 12.4935 130.84 12.0464C130.949 11.4529 131.287 10.9263 131.782 10.5806C132.276 10.2349 132.887 10.098 133.482 10.1997Z" fill="white"/>
<path opacity="0.2" d="M149.003 112.586C150.623 111.249 150.853 108.852 149.516 107.231C148.179 105.61 145.782 105.38 144.161 106.717C142.54 108.054 142.31 110.452 143.647 112.072C144.984 113.693 147.382 113.923 149.003 112.586Z" fill="#B0BEC5"/>
<path opacity="0.8" d="M138.924 111.619C140.545 110.282 140.775 107.884 139.438 106.264C138.101 104.643 135.704 104.413 134.083 105.75C132.462 107.087 132.232 109.485 133.569 111.105C134.906 112.726 137.304 112.956 138.924 111.619Z" fill="#B0BEC5"/>
</svg>
