<svg width="36" height="36" viewBox="0 0 36 36" fill="none" xmlns="http://www.w3.org/2000/svg">
<g opacity="0.5">
<mask id="mask0_1475_681" style="mask-type:luminance" maskUnits="userSpaceOnUse" x="0" y="0" width="36" height="36">
<path d="M36 0H0V36H36V0Z" fill="white"/>
</mask>
<g mask="url(#mask0_1475_681)">
<path d="M31.2449 12.0143L21.4199 4.1543C19.4999 2.62429 16.4999 2.6093 14.5948 4.1393L4.76982 12.0143C3.35982 13.1393 2.50482 15.3893 2.80482 17.1593L4.69482 28.4693C5.12982 31.0043 7.48482 32.9993 10.0498 32.9993H25.9499C28.4849 32.9993 30.8849 30.9593 31.3199 28.4543L33.2099 17.1443C33.4799 15.3893 32.6249 13.1393 31.2449 12.0143ZM19.1249 26.9993C19.1249 27.6143 18.6149 28.1243 17.9999 28.1243C17.3849 28.1243 16.8749 27.6143 16.8749 26.9993V22.4993C16.8749 21.8843 17.3849 21.3743 17.9999 21.3743C18.6149 21.3743 19.1249 21.8843 19.1249 22.4993V26.9993Z" fill="white"/>
</g>
</g>
</svg>
