<svg width="29" height="34" viewBox="0 0 29 34" fill="none" xmlns="http://www.w3.org/2000/svg">
<g opacity="0.5">
<path d="M27.5443 23.2678C26.8238 22.1944 26.1126 21.1146 25.3865 20.045C25.2369 19.8242 25.1731 19.6025 25.1731 19.3356C25.1796 16.4961 25.1741 13.6557 25.1768 10.8163C25.1768 10.2131 25.1076 9.61824 24.9903 9.02985C23.7784 2.95929 18.1456 -0.89162 12.0483 0.178025C6.88296 1.08325 2.98309 5.69529 2.96369 10.9382C2.95261 13.7435 2.95908 16.5488 2.96462 19.354C2.96462 19.6081 2.90458 19.8205 2.76233 20.032C1.99104 21.182 1.22344 22.3358 0.467855 23.4959C0.0974513 24.0649 -0.0688148 24.7023 0.0263264 25.3775C0.26926 27.1002 1.48762 28.1449 3.23064 28.1458C6.84416 28.1468 10.4577 28.1458 14.0703 28.1458C17.6949 28.1458 21.3204 28.1458 24.945 28.1458C26.192 28.1458 27.1665 27.6415 27.766 26.5358C28.3747 25.4135 28.2472 24.3162 27.5443 23.2678Z" fill="white"/>
<path d="M18.8967 29.79H9.25972C8.34156 29.79 7.59706 30.5345 7.59706 31.4527C7.59706 32.3709 8.34156 33.1154 9.25972 33.1154H18.8967C19.8148 33.1154 20.5594 32.3709 20.5594 31.4527C20.5594 30.5345 19.8148 29.79 18.8967 29.79Z" fill="white"/>
</g>
</svg>
