<svg width="24" height="32" viewBox="0 0 24 32" fill="none" xmlns="http://www.w3.org/2000/svg">
<path opacity="0.5" d="M23.9958 22.1619C23.9964 20.5087 23.9976 18.8562 23.9976 17.2031C23.9976 16.3974 23.9976 15.591 23.9976 14.7853C23.9982 13.739 23.9988 12.6921 24 11.6458C24 11.6175 23.9988 11.5919 23.9976 11.5669C23.9976 9.66418 23.9976 7.76149 23.9976 5.85881C23.9976 4.83177 23.6946 3.94137 22.9518 3.25304C22.4198 2.76101 21.8012 2.47426 21.0868 2.47362C20.0416 2.47298 18.9964 2.47234 17.9512 2.47169C17.8997 2.46849 17.8476 2.46592 17.7955 2.46528C17.7488 2.46464 17.7076 2.46656 17.6713 2.47169C17.6489 2.47169 17.6271 2.47169 17.6046 2.47169V1.283C17.6046 0.574141 17.0624 0 16.3928 0H7.60778C6.93825 0 6.39596 0.574141 6.39596 1.283V2.47169C5.23505 2.47169 4.07413 2.47169 2.91321 2.47298C2.19884 2.47362 1.58021 2.75973 1.04823 3.2524C0.305384 3.94073 0.00243073 4.83177 0.00303664 5.85817C0.00364255 7.76085 0.00303664 9.66354 0.00303664 11.5662C0.00182483 11.5912 0.000613011 11.6169 0.000613011 11.6451C0.00182483 12.6908 0.00243073 13.7358 0.00303664 14.7814C0.00303664 15.5884 0.00303664 16.3961 0.00303664 17.2031C0.00303664 18.8543 0.00424845 20.5049 0.00485436 22.1561C0.00485436 22.6359 0.00485436 23.1151 0.00485436 23.595C0.00485436 25.268 0.00485436 26.9404 7.10337e-06 28.6134C-0.000598804 28.954 0.0375734 29.2697 0.108465 29.5603C0.396876 30.7939 1.28756 31.7029 2.49937 31.9421C2.59147 31.9601 2.68599 31.9697 2.78052 31.9755C2.91382 31.9922 3.04711 32.0012 3.1792 31.9999C4.88362 31.9883 6.58743 31.9819 8.29185 31.9794C9.5279 31.9781 10.7639 31.9768 12 31.9768C13.2361 31.9768 14.4721 31.9781 15.7082 31.9794C17.4126 31.9826 19.1164 31.9883 20.8208 31.9999C20.9529 32.0005 21.0862 31.9922 21.2195 31.9755C21.314 31.9704 21.4085 31.9608 21.5006 31.9421C22.7118 31.7029 23.6025 30.7939 23.8909 29.5609C23.9618 29.2697 24.0006 28.9534 24 28.6128C23.9958 26.9372 23.9951 25.2609 23.9951 23.5853C23.9951 23.1106 23.9951 22.6359 23.9951 22.1612L23.9958 22.1619ZM16.0717 23.3987C16.0426 23.7585 15.8305 23.9779 15.47 24.0511C15.3319 24.0793 15.1937 24.1056 15.0556 24.1306C15.041 24.1332 15.0259 24.1357 15.0114 24.1383C14.8859 24.1608 14.7599 24.1813 14.6339 24.2012C14.6127 24.2044 14.5909 24.2076 14.5697 24.2108C14.4382 24.2307 14.3067 24.2493 14.1746 24.266C14.1704 24.266 14.1667 24.2666 14.1625 24.2673C13.459 24.3558 12.7519 24.3981 12.04 24.3853C12.0321 24.3853 12.0242 24.3853 12.0164 24.3853C12.0109 24.3853 12.0061 24.3853 12.0006 24.3853C11.9952 24.3853 11.9903 24.3853 11.9849 24.3853C11.977 24.3853 11.9691 24.3853 11.9612 24.3853C11.2493 24.3981 10.5416 24.3564 9.83873 24.2673C9.83449 24.2673 9.83085 24.2666 9.82661 24.266C9.69513 24.2493 9.56304 24.2307 9.43156 24.2108C9.40975 24.2076 9.38854 24.2044 9.36673 24.2012C9.2407 24.1819 9.11528 24.1608 8.98985 24.1383C8.97531 24.1357 8.96016 24.1332 8.94562 24.1306C8.80748 24.1056 8.66933 24.0793 8.53118 24.0511C8.17067 23.9773 7.9592 23.7585 7.92952 23.3987C7.83924 22.2895 8.08705 21.292 8.82081 20.4574C8.96319 20.2957 9.07468 20.2438 9.23949 20.3163C9.24979 20.3208 9.25948 20.3259 9.26978 20.331C9.2716 20.3317 9.27281 20.3323 9.27463 20.3336C9.30129 20.3477 9.32977 20.365 9.36006 20.3855C9.52608 20.4984 9.69271 20.6004 9.85872 20.6915C9.87872 20.7024 9.89871 20.7127 9.9181 20.723C9.95143 20.7409 9.98536 20.7589 10.0187 20.7762C10.6143 21.0796 11.2117 21.2452 11.8091 21.274C11.817 21.274 11.8249 21.2753 11.8328 21.2753C11.8673 21.2766 11.9018 21.2772 11.937 21.2779C11.9582 21.2779 11.9794 21.2792 12.0006 21.2792C12.0218 21.2792 12.043 21.2785 12.0642 21.2779C12.0988 21.2779 12.1333 21.2772 12.1678 21.2753C12.1757 21.2753 12.1836 21.274 12.1915 21.274C12.7889 21.2452 13.3863 21.0796 13.9819 20.7762C14.0152 20.7589 14.0492 20.7409 14.0825 20.723C14.1025 20.7121 14.1225 20.7024 14.1419 20.6915C14.3085 20.6004 14.4745 20.4984 14.6405 20.3855C14.6708 20.365 14.6993 20.3477 14.726 20.3336C14.7278 20.3329 14.729 20.3323 14.7308 20.331C14.7411 20.3259 14.7514 20.3208 14.7611 20.3163C14.9259 20.2438 15.0374 20.2957 15.1798 20.4574C15.9136 21.2926 16.1614 22.2895 16.0711 23.3987H16.0717ZM9.09892 16.2395C9.0977 15.3921 9.40975 14.6313 9.91992 14.0777C9.92719 14.07 9.93386 14.0623 9.94113 14.0546C9.95325 14.0418 9.96597 14.0296 9.97809 14.0167C10.4689 13.5183 11.1275 13.2008 11.8606 13.1642C11.8667 13.1642 11.8722 13.1642 11.8782 13.1642C11.9188 13.1623 11.9594 13.1616 12.0006 13.1616C12.0418 13.1616 12.0824 13.1629 12.1224 13.1642C12.1285 13.1642 12.1345 13.1642 12.14 13.1642C12.8731 13.2014 13.5317 13.5189 14.0225 14.0167C14.0346 14.0296 14.0474 14.0418 14.0595 14.0546C14.0667 14.0623 14.0734 14.07 14.0807 14.0777C14.5915 14.6313 14.9035 15.3921 14.9017 16.2395C14.9017 16.4506 14.8805 16.6565 14.8411 16.856C14.8411 16.8579 14.8405 16.8599 14.8399 16.8618C14.8308 16.9086 14.8205 16.9548 14.809 17.001C14.8072 17.0093 14.8047 17.0177 14.8023 17.026C14.792 17.0664 14.7811 17.1068 14.7696 17.146C14.7672 17.1543 14.7641 17.1627 14.7617 17.1716C14.7496 17.2121 14.7369 17.2518 14.7229 17.291C14.7211 17.2954 14.7193 17.2999 14.7181 17.3044C14.4357 18.0973 13.851 18.7401 13.1179 19.0692C13.1082 19.0737 13.0979 19.0775 13.0882 19.082C13.0567 19.0955 13.0252 19.109 12.9931 19.1218C12.9701 19.1308 12.9464 19.1391 12.9234 19.1475C12.904 19.1545 12.8852 19.1616 12.8652 19.168C12.8307 19.1795 12.7956 19.1904 12.7604 19.2007C12.7513 19.2033 12.7428 19.2058 12.7338 19.2084C12.6901 19.2206 12.6465 19.2315 12.6023 19.2418C12.6011 19.2418 12.5998 19.2424 12.598 19.243C12.4617 19.2738 12.3223 19.2937 12.18 19.3033C12.1733 19.3033 12.1666 19.3046 12.16 19.3046C12.1266 19.3065 12.0927 19.3072 12.0594 19.3078C12.04 19.3078 12.0206 19.3091 12.0012 19.3091C11.9818 19.3091 11.9624 19.3085 11.943 19.3078C11.9091 19.3072 11.8758 19.3065 11.8425 19.3046C11.8358 19.3046 11.8291 19.3033 11.8225 19.3033C11.6801 19.2937 11.5407 19.2738 11.4044 19.243C11.4032 19.243 11.402 19.2424 11.4002 19.2418C11.3559 19.2315 11.3123 19.2206 11.2687 19.2084C11.2596 19.2058 11.2511 19.2033 11.2426 19.2007C11.2075 19.1904 11.1723 19.1795 11.1372 19.168C11.1178 19.1616 11.0984 19.1545 11.0796 19.1475C11.056 19.1391 11.033 19.1308 11.0099 19.1218C10.9778 19.109 10.9463 19.0961 10.9148 19.082C10.9051 19.0775 10.8948 19.0737 10.8851 19.0692C10.152 18.7401 9.56728 18.0973 9.28493 17.3044C9.28311 17.2999 9.28129 17.2954 9.28008 17.291C9.26615 17.2512 9.25342 17.2114 9.2413 17.171C9.23888 17.1627 9.23585 17.1543 9.23343 17.146C9.22131 17.1062 9.21101 17.0658 9.2001 17.0254C9.19829 17.017 9.19586 17.0093 9.19344 17.001C9.18193 16.9548 9.17163 16.908 9.16254 16.8612C9.16254 16.8592 9.16193 16.8573 9.16132 16.856C9.12194 16.6565 9.10073 16.4506 9.10073 16.2395H9.09892ZM16.391 5.00497H7.60475C6.93522 5.00497 6.39293 4.43083 6.39293 3.72198H6.39839V2.53713H17.5974V3.72198H17.6028C17.6028 4.43083 17.0605 5.00497 16.391 5.00497Z" fill="white"/>
</svg>
