<svg width="37" height="33" viewBox="0 0 37 33" fill="none" xmlns="http://www.w3.org/2000/svg">
<path opacity="0.5" d="M18.502 0.00138191C20.9146 0.00138191 23.3272 -0.00172738 25.7397 0.00138191C27.2568 0.00345476 28.4097 0.661588 29.1713 1.9706C31.588 6.12564 33.9944 10.2859 36.409 14.442C37.1956 15.7955 37.1956 17.147 36.4173 18.4975C34.7612 21.3705 33.0968 24.2404 31.4365 27.1113C30.6905 28.4006 29.9454 29.6909 29.2004 30.9813C28.4263 32.3204 27.2672 32.9992 25.718 32.9992C20.9063 33.0003 16.0946 33.0003 11.2819 32.9992C9.74825 32.9992 8.59021 32.3338 7.8213 31.0114C5.40665 26.8553 2.99719 22.6961 0.585648 18.539C-0.190527 17.2009 -0.196753 15.8588 0.576309 14.5197C2.2345 11.6467 3.89685 8.77787 5.55711 5.90696C6.3032 4.61764 7.05032 3.32832 7.79329 2.03693C8.57154 0.683352 9.73684 0.00138191 11.3037 0.00138191C13.7028 0.00345476 16.1029 0.00138191 18.502 0.00138191ZM18.4252 22.6868C21.8194 22.6567 24.6398 20.1444 24.6792 16.5272C24.7156 13.2013 22.1743 10.3947 18.5996 10.3304C15.1638 10.2693 12.3424 12.8946 12.3258 16.4899C12.3103 19.8749 14.9106 22.5541 18.4263 22.6868H18.4252Z" fill="white"/>
</svg>
